<svg width="29" height="40" viewBox="0 0 29 40" fill="none" xmlns="http://www.w3.org/2000/svg">
<path d="M14.4994 0C6.50482 0 0 6.60635 0 14.7265C0 16.8446 0.426856 18.8669 1.26807 20.7377C4.89332 28.7944 11.8439 37.3006 13.8883 39.7155C14.0415 39.896 14.2648 40 14.4998 40C14.7348 40 14.9581 39.896 15.1113 39.7155C17.1549 37.301 24.1055 28.7952 27.7319 20.7377C28.5735 18.8669 29 16.8446 29 14.7265C28.9992 6.60635 22.4944 0 14.4994 0ZM14.4994 22.3756C10.3465 22.3756 6.96755 18.9438 6.96755 14.7261C6.96755 10.508 10.3465 7.07631 14.4994 7.07631C18.6523 7.07631 22.0312 10.508 22.0312 14.7261C22.0317 18.9438 18.6527 22.3756 14.4994 22.3756Z" fill="#013E8F"/>
</svg>
