<svg width="28" height="48" viewBox="0 0 28 48" fill="none" xmlns="http://www.w3.org/2000/svg">
<path d="M27.297 20.1351C27.0494 20.13 26.6662 20.1292 26.1908 20.1504L14.3563 30.1445V20.1277C14.3563 19.7392 14.0414 19.4242 13.6528 19.4242C13.2642 19.4242 12.9493 19.7392 12.9493 20.1277V30.1445L1.11403 20.1496C0.635062 20.1262 0.249093 20.1254 0 20.1297C0.0375937 20.3758 0.102937 20.7564 0.206156 21.2246L12.9493 31.9861V35.8302C12.9493 36.2187 13.2642 36.5337 13.6528 36.5337C14.0414 36.5337 14.3563 36.2187 14.3563 35.8302V31.9861L27.0851 21.2368C27.1909 20.7655 27.2583 20.3824 27.297 20.1351Z" fill="#775146"/>
<path d="M20.1413 47.9997H7.16506C6.89572 47.9997 6.66284 47.812 6.60556 47.5489L4.14697 36.2563H23.1593L20.7007 47.5489C20.6434 47.812 20.4105 47.9997 20.1413 47.9997Z" fill="#2D5872"/>
<path d="M18.4687 36.2563L16.2451 46.4702C16.1878 46.7334 15.9549 46.921 15.6856 46.921H6.46875L6.60544 47.549C6.66272 47.8121 6.89569 47.9998 7.16494 47.9998H20.1411C20.4105 47.9998 20.6433 47.8121 20.7006 47.549L23.1592 36.2564L18.4687 36.2563Z" fill="#1D4859"/>
<path d="M25.5907 33.2626H1.71541C1.46331 33.2626 1.25903 33.4669 1.25903 33.7189V36.1754C1.25903 36.4275 1.46341 36.6318 1.71541 36.6318H25.5907C25.8428 36.6318 26.047 36.4274 26.047 36.1754V33.7189C26.047 33.4669 25.8427 33.2626 25.5907 33.2626Z" fill="#45748C"/>
<path d="M25.5907 35.0842H1.71541C1.46331 35.0842 1.25903 34.8798 1.25903 34.6278V36.1755C1.25903 36.4276 1.46341 36.6319 1.71541 36.6319H25.5907C25.8428 36.6319 26.047 36.4275 26.047 36.1755V34.6278C26.047 34.8799 25.8427 35.0842 25.5907 35.0842Z" fill="#3C6A7C"/>
<path d="M13.653 20.8856C19.4204 20.8856 24.0958 16.2102 24.0958 10.4428C24.0958 4.6754 19.4204 0 13.653 0C7.8856 0 3.21021 4.6754 3.21021 10.4428C3.21021 16.2102 7.8856 20.8856 13.653 20.8856Z" fill="#FFB125"/>
<path d="M13.6528 0C12.8882 0 12.143 0.0829686 11.425 0.238968C16.1221 1.25972 19.6403 5.44021 19.6403 10.4431C19.6403 15.4459 16.1221 19.6264 11.425 20.6472C12.143 20.8032 12.8881 20.8861 13.6528 20.8861C19.4204 20.8861 24.0959 16.2107 24.0959 10.4431C24.0959 4.67549 19.4204 0 13.6528 0Z" fill="#FF901D"/>
<path d="M13.6532 18.8942C18.3209 18.8942 22.1048 15.1103 22.1048 10.4426C22.1048 5.77498 18.3209 1.99109 13.6532 1.99109C8.98555 1.99109 5.20166 5.77498 5.20166 10.4426C5.20166 15.1103 8.98555 18.8942 13.6532 18.8942Z" fill="#FEE570"/>
<path d="M0 20.1293C1.79343 20.0991 10.6563 20.314 10.5943 27.518C10.5392 27.9421 10.5155 28.4556 10.3016 28.8289C9.96945 29.1023 9.46704 29.2116 9.0582 29.337C1.96621 30.6043 0.270468 21.9025 0 20.1293Z" fill="#77DD00"/>
<path d="M0 20.1295L10.3016 28.8291C9.96945 29.1025 9.46704 29.2118 9.0582 29.3372C1.96621 30.6045 0.270468 21.9027 0 20.1295Z" fill="#73CC00"/>
<path d="M10.3017 28.829C10.3577 28.7313 10.4001 28.6238 10.434 28.5111L8.06623 26.5115L8.73158 22.7965C8.54792 22.6196 8.3548 22.4542 8.15342 22.2998L7.48677 26.0221L5.31449 24.1876L5.87361 21.0656C5.66521 20.987 5.45549 20.9145 5.24549 20.8483L4.73502 23.6983L0.508968 20.1295C0.305156 20.1263 0.13275 20.127 0 20.1293C0.0200625 20.2605 0.0480932 20.4307 0.0854057 20.631L4.31137 24.1999L1.58709 25.1802C1.68759 25.3763 1.79409 25.5709 1.9065 25.7632L4.89074 24.6893L7.06292 26.5237L3.50493 27.8041C3.69084 27.9768 3.8863 28.1395 4.09134 28.2909L7.64239 27.0129L10.0101 29.0125C10.116 28.9604 10.2148 28.9005 10.3017 28.829Z" fill="#B6FA4D"/>
<path d="M27.2976 20.1348C27.0204 21.9069 25.2923 30.6023 18.2051 29.3086C17.7968 29.1818 17.2948 29.0706 16.9637 28.796C16.7512 28.422 16.7295 27.9083 16.6759 27.4841C16.6406 20.2798 25.5042 20.0979 27.2976 20.1348Z" fill="#77DD00"/>
<path d="M27.2975 20.135C27.0204 21.9072 25.2923 30.6026 18.2051 29.3089C17.7967 29.1821 17.2947 29.0709 16.9636 28.7963L27.2975 20.135Z" fill="#73CC00"/>
<path d="M16.9635 28.7962C17.0501 28.868 17.1488 28.9283 17.2541 28.981L19.6293 26.9903L23.1756 28.2814C23.3812 28.1308 23.5774 27.9688 23.7639 27.7968L20.2105 26.5032L22.3896 24.6768L25.3699 25.7619C25.4831 25.5701 25.5903 25.3758 25.6915 25.1802L22.9709 24.1896L27.2102 20.6365C27.2481 20.4362 27.2769 20.2663 27.2974 20.135C27.1647 20.1323 26.9923 20.1309 26.7885 20.1333L22.5492 23.6864L22.0494 20.8346C21.8391 20.9 21.6291 20.9716 21.4205 21.0496L21.9679 24.1736L19.7889 25.9999L19.1361 22.2752C18.9342 22.4288 18.7404 22.5936 18.5561 22.7698L19.2077 26.4871L16.8325 28.4778C16.8658 28.5907 16.9078 28.6983 16.9635 28.7962Z" fill="#B6FA4D"/>
<path d="M19.6294 16.4192C22.9299 13.1187 22.9299 7.7676 19.6294 4.46704L7.67725 16.4192C10.9777 19.7197 16.3289 19.7197 19.6294 16.4192Z" fill="#F4D451"/>
<path d="M13.3135 15.233C11.707 15.207 10.6187 14.339 10.6187 13.7042C10.6187 13.3932 10.8907 12.9657 11.2146 12.9657C11.6421 12.9657 11.992 13.8726 13.3135 13.9762V10.9316C12.1474 10.5171 10.8519 10.0506 10.8519 8.39221C10.8519 6.75975 12.0826 6.11194 13.3135 5.98237V5.60662C13.3135 5.45109 13.4689 5.30859 13.6892 5.30859C13.8836 5.30859 14.0779 5.45109 14.0779 5.60662V5.95641C14.9589 5.98228 16.2027 6.25444 16.2027 6.88922C16.2027 7.1354 16.0213 7.62768 15.6326 7.62768C15.3216 7.62768 14.9848 7.21312 14.0778 7.14834V9.7784C15.205 10.193 16.4358 10.7631 16.4358 12.5251C16.4358 14.1186 15.477 14.9997 14.0778 15.194V15.6346C14.0778 15.7901 13.8835 15.9326 13.6891 15.9326C13.4689 15.9326 13.3134 15.7901 13.3134 15.6346V15.233H13.3135ZM13.3912 9.5323V7.1744C12.6657 7.26506 12.1474 7.58896 12.1474 8.26265C12.1474 9.00112 12.7045 9.27327 13.3912 9.5323ZM14.0001 11.2166V13.9504C14.6998 13.8208 15.1402 13.4062 15.1402 12.6677C15.1402 11.8515 14.635 11.4887 14.0001 11.2166Z" fill="#FF901D"/>
</svg>
