<svg width="44" height="48" viewBox="0 0 44 48" fill="none" xmlns="http://www.w3.org/2000/svg">
<path d="M27.4382 48H2.18147C0.976687 48 0 47.0233 0 45.8185V2.18147C0 0.976687 0.976687 0 2.18147 0H27.4383C28.6431 0 29.6198 0.976687 29.6198 2.18147V45.8185C29.6197 47.0233 28.643 48 27.4382 48Z" fill="#61AFF6"/>
<path d="M27.4381 0H25.0473C25.1312 0.23175 25.177 0.481688 25.177 0.742313V44.3794C25.177 45.5842 24.2003 46.5608 22.9955 46.5608H0.129639C0.433389 47.4002 1.23729 48 2.18136 48H27.4382C28.643 48 29.6196 47.0233 29.6196 45.8185V2.18147C29.6195 0.976687 28.6429 0 27.4381 0Z" fill="#55A2F0"/>
<path d="M25.8036 40.4249H3.81609C3.31799 40.4249 2.91431 40.0211 2.91431 39.523V3.66448C2.91431 3.16638 3.31809 2.7627 3.81609 2.7627H25.8035C26.3016 2.7627 26.7052 3.16648 26.7052 3.66448V39.5231C26.7053 40.0211 26.3016 40.4249 25.8036 40.4249Z" fill="#F2F2F2"/>
<path d="M14.8095 46.1185C15.8461 46.1185 16.6864 45.2782 16.6864 44.2416C16.6864 43.2051 15.8461 42.3647 14.8095 42.3647C13.7729 42.3647 12.9326 43.2051 12.9326 44.2416C12.9326 45.2782 13.7729 46.1185 14.8095 46.1185Z" fill="#F2F2F2"/>
<path d="M41.8986 11.2654H14.8096V32.4218H41.8986C42.7971 32.4218 43.5255 31.6934 43.5255 30.7949V12.8923C43.5256 11.9937 42.7971 11.2654 41.8986 11.2654Z" fill="#B6FA4C"/>
<path d="M41.8985 11.2654H38.9891C39.0694 11.458 39.1142 11.6693 39.1142 11.8912V29.7938C39.1142 30.6923 38.3858 31.4206 37.4873 31.4206H14.8096V32.4218H41.8986C42.7971 32.4218 43.5255 31.6934 43.5255 30.7949V12.8923C43.5255 11.9937 42.797 11.2654 41.8985 11.2654Z" fill="#A8E83A"/>
<path d="M41.1214 16.173C39.9684 15.6652 39.0451 14.7328 38.5482 13.574C38.4625 13.374 38.2639 13.2462 38.0463 13.2462H14.8096V30.4407H38.0464C38.2639 30.4407 38.4626 30.3129 38.5483 30.113C39.0452 28.954 39.9685 28.0218 41.1214 27.5139C41.3186 27.4271 41.4439 27.2298 41.4439 27.0143V16.6726C41.4439 16.4572 41.3185 16.2598 41.1214 16.173Z" fill="#77DD00"/>
<path d="M41.1214 16.173C39.9684 15.6652 39.0451 14.7328 38.5482 13.574C38.4625 13.374 38.2639 13.2462 38.0463 13.2462H36.9387V26.0132C36.9387 26.2286 36.8134 26.426 36.6163 26.5128C35.4634 27.0206 34.54 27.953 34.0431 29.1118C33.9574 29.3118 33.7588 29.4396 33.5412 29.4396H14.8096V30.4407H38.0464C38.2639 30.4407 38.4626 30.3129 38.5483 30.113C39.0452 28.954 39.9685 28.0218 41.1214 27.5139C41.3186 27.4271 41.4439 27.2298 41.4439 27.0143V16.6726C41.4439 16.4572 41.3185 16.2598 41.1214 16.173Z" fill="#73CC00"/>
<path d="M24.9717 27.9335C28.3351 27.9335 31.0616 25.2069 31.0616 21.8436C31.0616 18.4802 28.3351 15.7537 24.9717 15.7537C21.6084 15.7537 18.8818 18.4802 18.8818 21.8436C18.8818 25.2069 21.6084 27.9335 24.9717 27.9335Z" fill="#B6FA4C"/>
<path d="M24.799 25.5868C23.4987 25.5658 22.6179 24.8633 22.6179 24.3494C22.6179 24.0977 22.8381 23.7517 23.1003 23.7517C23.4463 23.7517 23.7294 24.4857 24.799 24.5695V22.1053C23.8553 21.7698 22.8066 21.3923 22.8066 20.05C22.8066 18.7288 23.8028 18.2045 24.799 18.0997V17.7955C24.799 17.6697 24.9248 17.5543 25.1031 17.5543C25.2605 17.5543 25.4177 17.6696 25.4177 17.7955V18.0787C26.1307 18.0997 27.1374 18.3199 27.1374 18.8336C27.1374 19.0329 26.9906 19.4313 26.676 19.4313C26.4244 19.4313 26.1517 19.0958 25.4177 19.0434V21.172C26.3299 21.5076 27.3261 21.969 27.3261 23.3951C27.3261 24.6849 26.5502 25.398 25.4177 25.5552V25.9118C25.4177 26.0376 25.2604 26.153 25.1031 26.153C24.9248 26.153 24.799 26.0377 24.799 25.9118V25.5868ZM24.862 20.9729V19.0644C24.2748 19.1379 23.8553 19.4 23.8553 19.9452C23.8552 20.543 24.3062 20.7632 24.862 20.9729ZM25.3548 22.3361V24.5487C25.921 24.4439 26.2775 24.1083 26.2775 23.5106C26.2775 22.8499 25.8686 22.5563 25.3548 22.3361Z" fill="#77DD00"/>
<path d="M14.8096 8.39648C14.4208 8.39648 14.1057 8.71167 14.1057 9.10036V34.1087C14.1057 34.4975 14.4208 34.8126 14.8096 34.8126C15.1984 34.8126 15.5135 34.4974 15.5135 34.1087V9.10036C15.5136 8.71158 15.1984 8.39648 14.8096 8.39648Z" fill="#CCDFED"/>
<path d="M25.8036 2.76233H3.81609C3.31799 2.76233 2.91431 3.16611 2.91431 3.6642V5.93267H26.7053V3.6642C26.7053 3.16611 26.3016 2.76233 25.8036 2.76233Z" fill="#21D8DE"/>
</svg>
