<svg width="48" height="48" viewBox="0 0 48 48" fill="none" xmlns="http://www.w3.org/2000/svg">
<path d="M22.1061 44.6538C22.1057 44.6445 22.1055 44.6352 22.1047 44.626C22.103 44.6053 22.1002 44.585 22.0968 44.5648C22.0959 44.5595 22.0954 44.554 22.0944 44.5487C22.0841 44.4955 22.0679 44.4446 22.0466 44.3963C22.0443 44.3913 22.0418 44.3865 22.0395 44.3815C22.0307 44.363 22.0214 44.3448 22.0111 44.3272C22.0072 44.3204 22.0032 44.3138 21.999 44.3072C21.9891 44.2914 21.9787 44.2762 21.9677 44.2613C21.9629 44.2548 21.9581 44.2481 21.953 44.2417C21.9403 44.2256 21.9269 44.2103 21.9128 44.1954C21.9089 44.1912 21.9053 44.1868 21.9013 44.1828C21.8829 44.1641 21.8634 44.1466 21.8431 44.13C21.8421 44.1293 21.8413 44.1283 21.8403 44.1276L18.4539 41.4077C18.1457 41.1601 17.6954 41.2095 17.4481 41.5176C17.2006 41.8256 17.2498 42.276 17.5579 42.5234L19.2251 43.8624C14.8156 43.4257 10.8391 41.6553 7.86127 38.766C4.48308 35.4882 2.62271 31.0357 2.62271 26.2283C2.62271 25.8332 2.30246 25.5129 1.9073 25.5129C1.51214 25.5129 1.19189 25.8333 1.19189 26.2283C1.19189 31.426 3.20658 36.2434 6.86499 39.7929C10.0912 42.9232 14.3908 44.8349 19.1467 45.2926L17.4768 46.3782C17.1455 46.5937 17.0517 47.0368 17.2671 47.368C17.4043 47.5788 17.6335 47.6934 17.8675 47.6934C18.0012 47.6934 18.1366 47.656 18.2569 47.5777L21.7823 45.2848C21.7834 45.2841 21.7844 45.2832 21.7855 45.2825C21.8077 45.2678 21.8292 45.2521 21.8496 45.2351C21.8526 45.2327 21.8552 45.2299 21.8581 45.2273C21.8748 45.213 21.891 45.1979 21.9062 45.1821C21.9121 45.176 21.9176 45.1697 21.9232 45.1634C21.9352 45.1501 21.9467 45.1364 21.9578 45.1222C21.9631 45.1154 21.9682 45.1086 21.9732 45.1016C21.9842 45.0862 21.9946 45.0701 22.0046 45.0538C22.0081 45.048 22.0118 45.0424 22.0151 45.0365C22.0411 44.9906 22.0621 44.9418 22.0775 44.8903C22.0786 44.8864 22.0795 44.8823 22.0806 44.8784C22.0865 44.8573 22.0916 44.8359 22.0955 44.8141C22.097 44.8061 22.0981 44.7981 22.0992 44.7899C22.1018 44.7719 22.1039 44.7538 22.1052 44.7354C22.1056 44.7305 22.1065 44.7257 22.1068 44.7208C22.1071 44.7159 22.1065 44.7112 22.1067 44.7063C22.1069 44.6992 22.1077 44.6922 22.1077 44.685C22.1076 44.6745 22.1065 44.6642 22.1061 44.6538Z" fill="#45748C"/>
<path d="M41.1798 8.66826C37.9536 5.53795 33.654 3.6262 28.898 3.1686L30.5677 2.0826C30.899 1.86717 30.9929 1.42401 30.7775 1.09279C30.562 0.761572 30.1187 0.667634 29.7876 0.883166L26.2622 3.17601C26.261 3.17676 26.2601 3.1776 26.259 3.17835C26.2368 3.19307 26.2153 3.20873 26.1949 3.2257C26.1919 3.22813 26.1892 3.23095 26.1863 3.23348C26.1696 3.24792 26.1535 3.26292 26.1381 3.27876C26.1323 3.28476 26.1269 3.29113 26.1213 3.29732C26.1093 3.31063 26.0976 3.32442 26.0867 3.33857C26.0814 3.34532 26.0763 3.35217 26.0713 3.3591C26.0602 3.37457 26.0498 3.3906 26.0399 3.40692C26.0364 3.41273 26.0327 3.41835 26.0294 3.42426C26.0034 3.4701 25.9823 3.51904 25.967 3.57051C25.9658 3.57435 25.965 3.57829 25.964 3.58213C25.958 3.60332 25.9529 3.6247 25.949 3.64663C25.9475 3.6546 25.9464 3.66267 25.9453 3.67073C25.9427 3.68873 25.9406 3.70682 25.9393 3.7252C25.9389 3.73017 25.938 3.73495 25.9377 3.73982C25.9374 3.7447 25.938 3.74948 25.9378 3.75435C25.9376 3.76148 25.9368 3.76842 25.9368 3.77563C25.9368 3.78623 25.9379 3.79654 25.9384 3.80695C25.9387 3.81623 25.939 3.82551 25.9398 3.8347C25.9415 3.85542 25.9443 3.87576 25.9476 3.89592C25.9486 3.90126 25.949 3.9067 25.9501 3.91204C25.9604 3.9652 25.9766 4.0161 25.9979 4.06438C26.0001 4.06945 26.0028 4.07432 26.0051 4.07938C26.0138 4.09795 26.0232 4.11604 26.0334 4.13367C26.0374 4.14042 26.0414 4.14707 26.0456 4.15363C26.0555 4.16938 26.0659 4.18467 26.0768 4.19948C26.0817 4.20604 26.0865 4.2127 26.0915 4.21917C26.1042 4.2352 26.1177 4.25057 26.1318 4.26538C26.1357 4.2696 26.1393 4.27401 26.1433 4.27804C26.1617 4.2967 26.1812 4.31423 26.2015 4.33082C26.2025 4.33157 26.2033 4.33251 26.2042 4.33326L29.5907 7.05313C29.7228 7.15926 29.881 7.21082 30.0382 7.21082C30.2477 7.21082 30.4552 7.11932 30.5965 6.94335C30.8439 6.63529 30.7948 6.18492 30.4866 5.93751L28.8194 4.59848C33.2289 5.03526 37.2055 6.80563 40.1833 9.69492C43.5615 12.9727 45.4219 17.4253 45.4219 22.2326C45.4219 22.6277 45.7421 22.948 46.1373 22.948C46.5324 22.948 46.8527 22.6276 46.8527 22.2326C46.8529 17.0352 44.8382 12.2178 41.1798 8.66826Z" fill="#45748C"/>
<path d="M12.6844 25.3688C19.6898 25.3688 25.3688 19.6898 25.3688 12.6844C25.3688 5.67899 19.6898 0 12.6844 0C5.67899 0 0 5.67899 0 12.6844C0 19.6898 5.67899 25.3688 12.6844 25.3688Z" fill="#FFB125"/>
<path d="M12.684 0C11.8961 0 11.1252 0.0724688 10.377 0.209906C16.2807 1.29478 20.754 6.46669 20.754 12.684C20.754 18.9013 16.2806 24.0731 10.377 25.158C11.1251 25.2954 11.896 25.3679 12.6839 25.3679C19.689 25.3679 25.3679 19.6891 25.3679 12.6839C25.3679 5.67872 19.6891 0 12.684 0Z" fill="#FF901D"/>
<path d="M12.6843 22.9339C18.345 22.9339 22.9339 18.345 22.9339 12.6843C22.9339 7.02351 18.345 2.43457 12.6843 2.43457C7.02351 2.43457 2.43457 7.02351 2.43457 12.6843C2.43457 18.345 7.02351 22.9339 12.6843 22.9339Z" fill="#FEE570"/>
<path d="M35.3155 47.9999C42.3209 47.9999 47.9999 42.3209 47.9999 35.3155C47.9999 28.3101 42.3209 22.6311 35.3155 22.6311C28.3101 22.6311 22.6311 28.3101 22.6311 35.3155C22.6311 42.3209 28.3101 47.9999 35.3155 47.9999Z" fill="#FFB125"/>
<path d="M35.3161 22.6318C34.5428 22.6318 33.7857 22.7013 33.0505 22.8339C38.9747 23.9021 43.469 29.084 43.469 35.3158C43.469 41.5477 38.9747 46.7296 33.0505 47.7978C33.7856 47.9304 34.5428 47.9998 35.3161 47.9998C42.3213 47.9998 48.0001 42.321 48.0001 35.3158C48.0001 28.3106 42.3213 22.6318 35.3161 22.6318Z" fill="#FF901D"/>
<path d="M35.3154 45.5654C40.9761 45.5654 45.565 40.9765 45.565 35.3157C45.565 29.655 40.9761 25.066 35.3154 25.066C29.6546 25.066 25.0657 29.655 25.0657 35.3157C25.0657 40.9765 29.6546 45.5654 35.3154 45.5654Z" fill="#FEE570"/>
<path d="M19.9319 19.9319C23.9349 15.929 23.9349 9.43897 19.9319 5.43604L5.43604 19.9319C9.43897 23.9349 15.929 23.9349 19.9319 19.9319Z" fill="#F4D451"/>
<path d="M12.5288 18.2494C10.5286 18.2172 9.17358 17.1363 9.17358 16.3459C9.17358 15.9587 9.5123 15.4264 9.91562 15.4264C10.4479 15.4264 10.8835 16.5556 12.5288 16.6846V12.8938C11.0771 12.3777 9.46393 11.797 9.46393 9.73222C9.46393 7.69972 10.9964 6.89319 12.5288 6.73185V6.26404C12.5288 6.07044 12.7224 5.89307 12.9966 5.89307C13.2386 5.89307 13.4806 6.07054 13.4806 6.26404V6.6996C14.5774 6.73185 16.126 7.07057 16.126 7.86107C16.126 8.16753 15.9001 8.78047 15.4162 8.78047C15.0291 8.78047 14.6097 8.26429 13.4806 8.18366V11.4583C14.8839 11.9744 16.4164 12.6842 16.4164 14.8781C16.4164 16.8622 15.2227 17.9591 13.4806 18.201V18.7495C13.4806 18.9431 13.2386 19.1204 12.9966 19.1204C12.7224 19.1204 12.5288 18.943 12.5288 18.7495V18.2494ZM12.6256 11.1518V8.216C11.7223 8.32888 11.0771 8.73219 11.0771 9.57097C11.077 10.4904 11.7706 10.8292 12.6256 11.1518ZM13.3837 13.2488V16.6524C14.2548 16.491 14.8032 15.9748 14.8032 15.0554C14.8033 14.0392 14.1742 13.5876 13.3837 13.2488Z" fill="#FF901D"/>
<path d="M42.5639 28.0679L28.0679 42.5639C32.0708 46.5668 38.5608 46.5668 42.5638 42.5639C46.5667 38.5609 46.5668 32.0709 42.5639 28.0679Z" fill="#F4D451"/>
<path d="M37.5011 34.6606C38.2343 34.3364 38.6996 33.5468 38.6996 32.3765C38.6996 30.8974 37.958 30.2694 36.957 30.0446H36.9928V29.3867C36.9928 29.0234 36.6983 28.7289 36.335 28.7289C35.9717 28.7289 35.6771 29.0234 35.6771 29.3867V29.9372H34.958V29.3867C34.958 29.0234 34.6634 28.7289 34.3001 28.7289C33.9368 28.7289 33.6423 29.0234 33.6423 29.3867V29.9372H33.4571H33.2851H32.6407C32.2567 29.9372 31.9453 30.2486 31.9453 30.6326C31.9453 31.0105 32.2469 31.3172 32.6224 31.327V38.8544C32.2468 38.8642 31.9453 39.1709 31.9453 39.5489C31.9453 39.9328 32.2566 40.2442 32.6407 40.2442H33.2851H33.4571H33.6423V40.8293C33.6423 41.1926 33.9367 41.4871 34.3001 41.4871C34.6634 41.4871 34.958 41.1927 34.958 40.8293V40.2442H35.6771V40.8293C35.6771 41.1926 35.9717 41.4871 36.335 41.4871C36.6982 41.4871 36.9928 41.1927 36.9928 40.8293V40.1714H36.9263C38.112 39.935 38.9533 39.0928 38.9533 37.2832V37.0153C38.9534 35.5771 38.3754 34.999 37.5011 34.6606ZM34.1031 31.2625H35.7528C36.6411 31.2625 37.205 31.6714 37.205 32.616C37.205 33.5748 36.7397 34.0683 35.781 34.0683H34.1031V31.2625ZM37.4588 37.1703C37.4588 38.3829 36.8666 38.9187 35.8656 38.9187H34.1031V35.2528H35.8656C36.8666 35.2528 37.4588 35.704 37.4588 36.9448V37.1703Z" fill="#FF901D"/>
</svg>
