<svg width="60" height="48" viewBox="0 0 60 48" fill="none" xmlns="http://www.w3.org/2000/svg">
<path d="M45.8937 26.5256C53.2185 26.5256 59.1565 20.5876 59.1565 13.2628C59.1565 5.93796 53.2185 0 45.8937 0C38.5688 0 32.6309 5.93796 32.6309 13.2628C32.6309 20.5876 38.5688 26.5256 45.8937 26.5256Z" fill="#FEA921"/>
<path d="M55.2718 3.88447C51.9944 0.607077 47.4286 -0.595577 43.2048 0.274784C45.6561 0.779923 47.9923 1.98246 49.8944 3.88447C55.0738 9.06389 55.0738 17.4615 49.8944 22.641C47.9923 24.543 45.6561 25.7456 43.2048 26.2508C47.4286 27.121 51.9944 25.9185 55.2718 22.641C60.4512 17.4615 60.4512 9.064 55.2718 3.88447Z" fill="#FF901D"/>
<path d="M45.7338 21.0446C43.0389 21.0012 41.2134 19.5451 41.2134 18.4802C41.2134 17.9586 41.6698 17.2414 42.213 17.2414C42.9302 17.2414 43.517 18.7627 45.7336 18.9365V13.8294C43.7778 13.134 41.6045 12.3516 41.6045 9.56983C41.6045 6.83154 43.6691 5.745 45.7336 5.52756V4.89729C45.7336 4.63651 45.9944 4.39746 46.3639 4.39746C46.6898 4.39746 47.0159 4.63651 47.0159 4.89729V5.48411C48.4938 5.52756 50.5801 5.98394 50.5801 7.04887C50.5801 7.4618 50.2758 8.28757 49.6239 8.28757C49.1023 8.28757 48.5373 7.59213 47.016 7.48353V11.8952C48.9067 12.5906 50.9713 13.5468 50.9713 16.5024C50.9713 19.1756 49.3631 20.6533 47.016 20.9794V21.7182C47.016 21.979 46.6901 22.2181 46.364 22.2181C45.9945 22.2181 45.7338 21.979 45.7338 21.7182V21.0446ZM45.8642 11.4824V7.52708C44.6471 7.67913 43.7779 8.22252 43.7779 9.35261C43.7779 10.5913 44.7124 11.0477 45.8642 11.4824ZM46.8856 14.3075V18.8931C48.0591 18.6757 48.798 17.9803 48.798 16.7415C48.7981 15.3725 47.9505 14.7639 46.8856 14.3075Z" fill="#DD7219"/>
<path d="M34.32 18.9591C32.8793 20.3998 31.2434 22.0361 30.3416 22.9383C29.9005 23.3797 29.3023 23.6276 28.6706 23.6276H28.638C27.5956 23.6276 26.3747 22.6183 26.1059 21.6111L26.1052 12.4917L29.4649 9.72706L33.2852 9.14069C33.2852 9.14069 39.7644 7.85762 41.6946 6.95179C42.1786 6.72476 43.2042 3.53482 40.7053 3.28283C37.7886 3.01709 31.085 2.22102 29.3355 2.01143C28.1353 1.8677 26.9287 2.22252 25.9973 2.99306L17.4715 10.0464C16.2425 11.0632 15.3566 12.4333 14.9321 13.9709C13.9813 17.4147 12.1616 23.6894 10.8905 26.1119L4.54102 32.4613L15.5338 43.4541L18.5911 40.3968C19.1657 39.8223 19.8762 39.4023 20.6567 39.1759L27.0419 37.0258C29.0478 36.3377 30.8135 35.0874 32.1288 33.424L35.3606 29.3367L44.8081 19.8892C45.8968 18.8005 46.3597 17.4983 45.2711 16.4095C43.5552 14.2792 37.2913 15.9878 34.32 18.9591Z" fill="#FED9A8"/>
<path d="M45.2709 16.4099C44.9772 16.0451 44.5502 15.793 44.0294 15.6404C42.7135 15.2549 41.2921 15.6657 40.3271 16.6398C37.7685 19.2226 31.5134 25.4898 31.5134 25.4898L28.2815 29.5771C26.9662 31.2406 25.2004 32.4908 23.1947 33.179L16.8095 35.329C16.8038 35.3307 16.7982 35.3323 16.7925 35.334C15.7009 35.655 14.5219 35.3821 13.7173 34.5776L8.07121 28.9315L4.54102 32.4617L15.5338 43.4545L18.5911 40.3972C18.67 40.3183 18.7518 40.2426 18.8359 40.1699C18.8387 40.1675 18.8417 40.1653 18.8445 40.1629C18.9269 40.0919 19.0114 40.0238 19.0981 39.9584C19.5646 39.6065 20.092 39.34 20.6567 39.1763L27.0419 37.0262C29.0478 36.338 30.8135 35.0878 32.1288 33.4244L35.3606 29.337L44.8081 19.8896C45.8967 18.8009 46.3597 17.4986 45.2709 16.4099Z" fill="#F4C892"/>
<path d="M44.4346 19.5955C43.1807 18.3417 41.1478 18.3417 39.894 19.5955L38.4675 21.022C37.822 21.6675 37.822 22.7139 38.4675 23.3595L39.9029 24.7948L44.7683 19.9294L44.4346 19.5955Z" fill="#F7E7D5"/>
<path d="M13.0768 47.6465L0.353638 34.9233C-0.117879 34.4518 -0.117879 33.6874 0.353638 33.2159L3.86593 29.7036C4.33745 29.2321 5.10186 29.2321 5.57337 29.7036L18.2965 42.4267C18.768 42.8982 18.768 43.6627 18.2965 44.1342L14.7842 47.6465C14.3127 48.118 13.5483 48.118 13.0768 47.6465Z" fill="#2D5871"/>
<path d="M18.2967 42.4265L5.57342 29.7032C5.10191 29.2317 4.3375 29.2317 3.86598 29.7032L1.2854 32.2838C1.75692 31.8123 2.52133 31.8123 2.99285 32.2838L15.716 45.0069C16.1875 45.4785 16.1875 46.2429 15.716 46.7144L18.2965 44.1338C18.7682 43.6624 18.7682 42.898 18.2967 42.4265Z" fill="#234C60"/>
<path d="M13.4791 44.4104C14.4263 44.4104 15.1941 43.6426 15.1941 42.6954C15.1941 41.7483 14.4263 40.9805 13.4791 40.9805C12.532 40.9805 11.7642 41.7483 11.7642 42.6954C11.7642 43.6426 12.532 44.4104 13.4791 44.4104Z" fill="white"/>
<path d="M33.2849 9.14076L33.2857 9.14065C33.2857 9.14065 39.765 7.85758 41.6952 6.95186C42.1792 6.72483 43.2047 3.53489 40.7058 3.2829C39.8859 3.20815 38.7667 3.09157 37.5424 2.95789C37.1881 3.2457 36.845 3.5543 36.5152 3.88428C34.9881 5.41149 33.9115 7.21876 33.2849 9.14076Z" fill="#FEA921"/>
</svg>
