<svg width="50" height="48" viewBox="0 0 50 48" fill="none" xmlns="http://www.w3.org/2000/svg">
<path d="M35.6917 35.1166L38.97 31.8384L23.217 16.0854L19.9387 19.3636L35.6917 35.1166Z" fill="#E1EFFB"/>
<path d="M37.3073 33.5011L38.97 31.8384L23.217 16.0854L21.5543 17.7481L37.3073 33.5011Z" fill="#CCDFED"/>
<path d="M25.9907 36.8708H5.4672C4.97957 36.8708 4.58423 37.2662 4.58423 37.7538V43.2693H26.8737V37.7538C26.8737 37.2662 26.4783 36.8708 25.9907 36.8708Z" fill="#927266"/>
<path d="M16.7989 26.5246L30.5405 12.783L21.5767 3.81913L7.83505 17.5608L16.7989 26.5246Z" fill="#FF6D3A"/>
<path d="M21.5772 3.81885L17.7243 7.67174L21.5697 11.5171C23.0064 12.9539 23.0064 15.2835 21.5697 16.7203L14.2822 24.0078L16.7994 26.525L30.5413 12.7831L21.5772 3.81885Z" fill="#ED5729"/>
<path d="M17.9251 28.7703L16.5352 30.1602C16.0735 30.6219 15.325 30.6219 14.8634 30.1602L4.19931 19.496C3.7376 19.0343 3.7376 18.2858 4.19931 17.8242L5.58921 16.4343C6.05091 15.9726 6.79941 15.9726 7.26102 16.4343L17.9251 27.0984C18.3868 27.5601 18.3868 28.3086 17.9251 28.7703Z" fill="#FF4C4C"/>
<path d="M34.0129 12.6823L32.623 14.0722C32.1613 14.5339 31.4128 14.5339 30.9512 14.0722L20.287 3.40799C19.8252 2.94629 19.8252 2.19779 20.287 1.73618L21.6769 0.346281C22.1386 -0.115427 22.8871 -0.115427 23.3487 0.346281L34.0128 11.0104C34.4746 11.4721 34.4746 12.2206 34.0129 12.6823Z" fill="#FF4C4C"/>
<path d="M34.0144 11.0105L23.3503 0.346281C22.8886 -0.115427 22.1401 -0.115427 21.6785 0.346281L20.2886 1.73618C20.2762 1.74855 20.2656 1.7619 20.2539 1.77457C20.7178 1.34931 21.438 1.36003 21.8873 1.80936L32.5515 12.4735C33.0009 12.9228 33.0116 13.643 32.5863 14.1069C32.5991 14.0952 32.6124 14.0845 32.6247 14.0722L34.0146 12.6823C34.4761 12.2206 34.4761 11.4721 34.0144 11.0105Z" fill="#F33939"/>
<path d="M17.9261 27.0985L7.26193 16.4343C6.80022 15.9726 6.05173 15.9726 5.59012 16.4343L4.20022 17.8242C4.18784 17.8366 4.17722 17.8499 4.16553 17.8626C4.62938 17.4373 5.34962 17.448 5.79895 17.8974L16.463 28.5616C16.9124 29.0109 16.9231 29.7311 16.4978 30.195C16.5106 30.1833 16.524 30.1726 16.5362 30.1603L17.9261 28.7704C18.3877 28.3087 18.3877 27.5602 17.9261 27.0985Z" fill="#F33939"/>
<path d="M49.5631 41.9773L45.8309 45.7095C45.3908 46.1496 44.6772 46.1496 44.237 45.7095L33.6553 35.1278C33.2152 34.6876 33.2152 33.974 33.6553 33.5338L37.3875 29.8017C37.8276 29.3615 38.5413 29.3615 38.9814 29.8017L49.5631 40.3833C50.0033 40.8234 50.0033 41.5371 49.5631 41.9773Z" fill="#2D5872"/>
<path d="M49.5627 40.3834L38.9811 29.8017C38.5409 29.3615 37.8273 29.3615 37.3871 29.8017L33.6549 33.5338L33.6548 33.5339L35.0727 32.116C35.5129 31.6758 36.2265 31.6758 36.6667 32.116L47.2484 42.6976C47.6885 43.1378 47.6885 43.8514 47.2484 44.2916L45.8304 45.7095L45.8305 45.7095L49.5626 41.9773C50.0029 41.5372 50.0029 40.8235 49.5627 40.3834Z" fill="#1D4859"/>
<path d="M25.9907 36.8708H22.0304L22.0247 40.434C22.0236 41.1268 21.4617 41.6877 20.7689 41.6877H4.58423V43.2693H26.8737V37.7538C26.8737 37.2662 26.4783 36.8708 25.9907 36.8708Z" fill="#82635A"/>
<path d="M28.8489 42.6449H2.60858C1.16791 42.6449 0 43.8128 0 45.2536V47.4749C0 47.7649 0.235142 47.9999 0.525049 47.9999H30.9324C31.2224 47.9999 31.4574 47.7648 31.4574 47.4749V45.2536C31.4575 43.8128 30.2896 42.6449 28.8489 42.6449Z" fill="#927266"/>
<path d="M31.4546 45.1363C31.3933 43.7501 30.2503 42.6449 28.8489 42.6449H26.5545L26.5489 46.1856C26.5482 46.6051 26.2079 46.9449 25.7883 46.9449H0.525049C0.235044 46.9449 0 46.7097 0 46.4197V47.4748C0 47.7648 0.235142 47.9999 0.525049 47.9999H30.9325C30.9672 47.9999 31.0011 47.9962 31.034 47.9897C31.047 47.9872 31.0589 47.9824 31.0716 47.979C31.0906 47.9737 31.1097 47.9689 31.1277 47.9616C31.144 47.955 31.1589 47.9464 31.1743 47.9384C31.1869 47.9317 31.1998 47.9257 31.2117 47.9181C31.2296 47.9068 31.2459 47.8938 31.2622 47.8805C31.2698 47.8742 31.2776 47.8685 31.2848 47.8619C31.3029 47.8455 31.319 47.8276 31.3347 47.8088C31.3385 47.8042 31.3424 47.7997 31.346 47.795C31.3627 47.7735 31.3773 47.7508 31.3906 47.7267C31.392 47.7241 31.3934 47.7215 31.3948 47.719C31.4086 47.6929 31.42 47.6658 31.4293 47.6372C31.4296 47.6364 31.4298 47.6355 31.4301 47.6346C31.4397 47.6049 31.4466 47.5743 31.4507 47.5425V47.5424V47.5423C31.4536 47.52 31.4575 47.4979 31.4575 47.4748L31.4546 45.1363Z" fill="#82635A"/>
</svg>
