<svg width="37" height="48" viewBox="0 0 37 48" fill="none" xmlns="http://www.w3.org/2000/svg">
<path d="M0 2.45259V45.5474C0 46.9019 1.09809 48 2.45259 48H34.157C35.5115 48 36.6096 46.9019 36.6096 45.5474V12.6623L23.9471 0H2.45259C1.09809 0 0 1.09809 0 2.45259Z" fill="#E1EFFB"/>
<path d="M26.8667 2.91943V13.3715C26.8667 14.2206 27.555 14.9089 28.4041 14.9089H32.0194V45.5476C32.0194 46.9021 30.9213 48.0002 29.5668 48.0002H34.1572C35.5117 48.0002 36.6098 46.9021 36.6098 45.5476V14.9089V12.6626L26.8667 2.91943Z" fill="#CCDFED"/>
<path d="M23.9473 0L36.6096 12.6623H25.4848C24.6357 12.6623 23.9474 11.974 23.9474 11.1249V0H23.9473Z" fill="#FF4C4C"/>
<path d="M25.396 3.15527L33.2725 11.0318H26.3523C25.8242 11.0318 25.396 10.6036 25.396 10.0754V3.15527Z" fill="#F96B6B"/>
<path d="M10.1436 36.2423C6.42678 36.1823 3.90894 34.174 3.90894 32.7053C3.90894 31.9859 4.53837 30.9967 5.28772 30.9967C6.27687 30.9967 7.08622 33.0951 10.1436 33.3348V26.2908C7.44594 25.3316 4.44847 24.2525 4.44847 20.4157C4.44847 16.6389 7.29603 15.1402 10.1436 14.8404V13.9712C10.1436 13.6115 10.5033 13.2817 11.0129 13.2817C11.4626 13.2817 11.9121 13.6115 11.9121 13.9712V14.7805C13.9504 14.8404 16.828 15.47 16.828 16.9387C16.828 17.5083 16.4083 18.6472 15.5091 18.6472C14.7897 18.6472 14.0104 17.6881 11.9122 17.5382V23.623C14.5199 24.5822 17.3675 25.9011 17.3675 29.9777C17.3675 33.6646 15.1494 35.7028 11.9121 36.1524V37.1715C11.9121 37.5312 11.4625 37.8609 11.0129 37.8609C10.5033 37.8609 10.1436 37.5312 10.1436 37.1715V36.2423ZM10.3235 23.0535V17.5982C8.6449 17.808 7.44594 18.5572 7.44594 20.116C7.44594 21.8245 8.73481 22.4541 10.3235 23.0535ZM11.7323 26.9502V33.2749C13.3509 32.9751 14.37 32.016 14.37 30.3074C14.37 28.4189 13.2011 27.5796 11.7323 26.9502Z" fill="#F4D451"/>
<path d="M31.7667 42.0037H4.84282C4.43819 42.0037 4.11035 42.3316 4.11035 42.7361C4.11035 43.1407 4.43829 43.4686 4.84282 43.4686H31.7667C32.1713 43.4686 32.4992 43.1407 32.4992 42.7361C32.4992 42.3316 32.1713 42.0037 31.7667 42.0037Z" fill="#61AFF6"/>
<path d="M20.3555 17.2816H31.7664C32.171 17.2816 32.4989 16.9537 32.4989 16.5491C32.4989 16.1446 32.1709 15.8167 31.7664 15.8167H20.3555C19.9509 15.8167 19.623 16.1446 19.623 16.5491C19.623 16.9537 19.9509 17.2816 20.3555 17.2816Z" fill="#FFB125"/>
<path d="M31.7664 24.8386H20.3555C19.9509 24.8386 19.623 25.1666 19.623 25.5711C19.623 25.9756 19.951 26.3036 20.3555 26.3036H31.7664C32.171 26.3036 32.4989 25.9756 32.4989 25.5711C32.4989 25.1666 32.171 24.8386 31.7664 24.8386Z" fill="#FFB125"/>
<path d="M31.7664 33.8606H20.3555C19.9509 33.8606 19.623 34.1885 19.623 34.5931C19.623 34.9976 19.951 35.3255 20.3555 35.3255H31.7664C32.171 35.3255 32.4989 34.9976 32.4989 34.5931C32.4989 34.1885 32.171 33.8606 31.7664 33.8606Z" fill="#61AFF6"/>
</svg>
