<svg width="48" height="48" viewBox="0 0 48 48" fill="none" xmlns="http://www.w3.org/2000/svg">
<path d="M11.1508 24.4752C11.4069 24.4752 11.6145 24.2677 11.6145 24.0115V22.0845H12.0803C12.3364 22.0845 12.544 21.877 12.544 21.6208V19.1085H4.26123V21.6208C4.26123 21.8769 4.46879 22.0845 4.72492 22.0845H5.19076V24.0115C5.19076 24.2676 5.39832 24.4752 5.65445 24.4752H6.45891V40.1017H5.65445C5.39842 40.1017 5.19076 40.3093 5.19076 40.5654V42.4925H4.72492C4.46889 42.4925 4.26123 42.7 4.26123 42.9561V45.4685H12.5439V42.9561C12.5439 42.7001 12.3364 42.4925 12.0802 42.4925H11.6144V40.5654C11.6144 40.3094 11.4068 40.1017 11.1507 40.1017H10.3463V24.4752H11.1508Z" fill="#FFB125"/>
<path d="M8.40234 45.4684H12.5437V42.956C12.5437 42.7 12.3362 42.4924 12.0801 42.4924H11.6142V40.5653C11.6142 40.3093 11.4067 40.1016 11.1505 40.1016H10.3461V24.4752H11.1505C11.4067 24.4752 11.6142 24.2677 11.6142 24.0115V22.0845H12.0801C12.3361 22.0845 12.5437 21.877 12.5437 21.6208V19.1085H8.40234V45.4684Z" fill="#FF901D"/>
<path d="M46.6887 14.7044L24.0746 0.154476C23.7545 -0.0514921 23.3437 -0.0514921 23.0236 0.154476L0.409494 14.7044C-0.33638 15.1843 0.00355714 16.3407 0.890431 16.3407H46.2078C47.0947 16.3406 47.4346 15.1843 46.6887 14.7044Z" fill="#FF4C4C"/>
<path d="M24.0744 2.28436C23.7543 2.07839 23.3435 2.07839 23.0234 2.28436L1.17627 16.3407H45.9215L24.0744 2.28436Z" fill="#F33939"/>
<path d="M22.8971 4.35029L4.26123 16.3405H42.8371L24.2012 4.35029C23.804 4.09482 23.2942 4.09482 22.8971 4.35029Z" fill="#FFB125"/>
<path d="M26.2972 24.4752C26.5532 24.4752 26.7609 24.2677 26.7609 24.0115V22.0845H27.2267C27.4828 22.0845 27.6904 21.877 27.6904 21.6208V19.1085H19.4077V21.6208C19.4077 21.8769 19.6153 22.0845 19.8714 22.0845H20.3372V24.0115C20.3372 24.2676 20.5448 24.4752 20.8009 24.4752H21.6054V40.1017H20.8009C20.5448 40.1017 20.3372 40.3093 20.3372 40.5654V42.4925H19.8714C19.6154 42.4925 19.4077 42.7 19.4077 42.9561V45.4685H27.6904V42.9561C27.6904 42.7001 27.4829 42.4925 27.2267 42.4925H26.7609V40.5654C26.7609 40.3094 26.5533 40.1017 26.2972 40.1017H25.4927V24.4752H26.2972Z" fill="#FFB125"/>
<path d="M41.4437 24.4752C41.6997 24.4752 41.9074 24.2677 41.9074 24.0115V22.0845H42.3732C42.6293 22.0845 42.8369 21.877 42.8369 21.6208V19.1085H34.5542V21.6208C34.5542 21.8769 34.7618 22.0845 35.0179 22.0845H35.4837V24.0115C35.4837 24.2676 35.6913 24.4752 35.9474 24.4752H36.7519V40.1017H35.9474C35.6914 40.1017 35.4837 40.3093 35.4837 40.5654V42.4925H35.0179C34.7619 42.4925 34.5542 42.7 34.5542 42.9561V45.4685H42.8369V42.9561C42.8369 42.7001 42.6293 42.4925 42.3732 42.4925H41.9074V40.5654C41.9074 40.3094 41.6998 40.1017 41.4437 40.1017H40.6392V24.4752H41.4437Z" fill="#FFB125"/>
<path d="M23.5488 45.4684H27.6902V42.956C27.6902 42.7 27.4827 42.4924 27.2265 42.4924H26.7607V40.5653C26.7607 40.3093 26.5531 40.1016 26.297 40.1016H25.4925V24.4752H26.297C26.553 24.4752 26.7607 24.2677 26.7607 24.0115V22.0845H27.2265C27.4826 22.0845 27.6902 21.877 27.6902 21.6208V19.1085H23.5488V45.4684Z" fill="#FF901D"/>
<path d="M38.718 45.4685H42.8371V42.9562C42.8371 42.7001 42.6295 42.4925 42.3734 42.4925H41.9076V40.5655C41.9076 40.3094 41.7 40.1018 41.4439 40.1018H40.6394V24.4754H41.4439C41.6999 24.4754 41.9076 24.2678 41.9076 24.0117V22.0846H42.3734C42.6295 22.0846 42.8371 21.8771 42.8371 21.621V19.1086H38.718V45.4685Z" fill="#FF901D"/>
<path d="M45.3055 48.0001H1.79208C0.988833 48.0001 0.337646 47.3489 0.337646 46.5456C0.337646 45.7424 0.988833 45.0912 1.79208 45.0912H45.3055C46.1088 45.0912 46.76 45.7424 46.76 46.5456C46.76 47.3489 46.1088 48.0001 45.3055 48.0001Z" fill="#FF6D3A"/>
<path d="M45.3055 48.0001H1.79208C0.988833 48.0001 0.337646 47.3489 0.337646 46.5456C0.337646 45.7424 0.988833 45.0912 1.79208 45.0912H45.3055C46.1088 45.0912 46.76 45.7424 46.76 46.5456C46.76 47.3489 46.1088 48.0001 45.3055 48.0001Z" fill="#FF4C4C"/>
<path d="M45.3055 46.6808H1.79208C1.22649 46.6808 0.73749 46.3573 0.496928 45.8859C0.395771 46.0841 0.337646 46.3077 0.337646 46.5455C0.337646 47.3487 0.988833 47.9999 1.79208 47.9999H45.3055C46.1088 47.9999 46.76 47.3487 46.76 46.5455C46.76 46.3077 46.7017 46.0841 46.6007 45.8859C46.3601 46.3573 45.871 46.6808 45.3055 46.6808Z" fill="#F33939"/>
<path d="M42.8374 16.3407H4.26123V19.4858H42.8374V16.3407Z" fill="#FF4C4C"/>
<path d="M42.8374 17.9128H4.26123V19.4854H42.8374V17.9128Z" fill="#F33939"/>
<path d="M23.5972 16.3407H42.8371L24.2012 4.35046C24.0167 4.23177 23.8077 4.16887 23.5972 4.16052V16.3407Z" fill="#FF901D"/>
<path d="M23.2192 14.5829C21.9189 14.5619 21.0381 13.8593 21.0381 13.3455C21.0381 13.0938 21.2583 12.7478 21.5204 12.7478C21.8665 12.7478 22.1496 13.4818 23.2192 13.5656V11.1014C22.2755 10.7659 21.2268 10.3883 21.2268 9.04613C21.2268 7.72491 22.223 7.20057 23.2192 7.09576V6.79163C23.2192 6.66582 23.345 6.55042 23.5233 6.55042C23.6806 6.55042 23.8378 6.66573 23.8378 6.79163V7.07476C24.5509 7.09576 25.5576 7.31598 25.5576 7.82973C25.5576 8.02894 25.4108 8.42738 25.0961 8.42738C24.8445 8.42738 24.5719 8.09185 23.8378 8.03944V10.1681C24.7501 10.5037 25.7463 10.9651 25.7463 12.3912C25.7463 13.681 24.9703 14.3941 23.8378 14.5513V14.9078C23.8378 15.0337 23.6805 15.1491 23.5233 15.1491C23.345 15.1491 23.2192 15.0337 23.2192 14.9078V14.5829ZM23.2822 9.969V8.06054C22.6949 8.13394 22.2755 8.39607 22.2755 8.94132C22.2755 9.53907 22.7263 9.75929 23.2822 9.969ZM23.775 11.3322V13.5448C24.3413 13.44 24.6978 13.1044 24.6978 12.5067C24.6977 11.846 24.2888 11.5523 23.775 11.3322Z" fill="#DD7219"/>
</svg>
