<svg width="50" height="48" viewBox="0 0 50 48" fill="none" xmlns="http://www.w3.org/2000/svg">
<path d="M0.902267 30.4583C0.844947 30.4583 0.78986 30.457 0.737009 30.4545C0.325271 30.4358 0 30.0995 0 29.6874V29.6838C0 29.266 0.334403 28.9306 0.752068 28.9164C1.46547 28.8921 2.56418 28.6335 3.49686 27.464C3.54913 27.3986 3.59673 27.3332 3.64016 27.2683C2.0618 26.9292 1.11076 26.3899 0.740798 25.6275C0.521522 25.1758 0.407366 24.4429 1.10823 23.5168C1.59148 22.8781 2.28817 22.5674 3.02003 22.6653C3.94882 22.7892 4.82427 23.5539 5.25048 24.6134C5.44372 25.0936 5.53242 25.5886 5.5196 26.079C5.96233 26.1249 6.41244 26.1538 6.8474 26.1633C7.24894 26.1721 7.59208 26.4872 7.59694 26.8888C7.60199 27.3058 7.26458 27.6389 6.84827 27.6331C6.8097 27.6323 6.0998 27.6174 5.18209 27.5137C5.04442 27.8141 4.86537 28.1047 4.6457 28.3801C3.25368 30.1254 1.80492 30.4583 0.902267 30.4583ZM2.75169 24.1163C2.62616 24.1163 2.46003 24.165 2.27971 24.4032C2.16595 24.5536 1.9865 24.8291 2.06258 24.9859C2.23405 25.3397 3.0242 25.6435 4.04102 25.8544C4.02304 25.5513 3.94639 25.3083 3.88732 25.1616C3.63656 24.5385 3.16342 24.1667 2.82562 24.1217C2.80298 24.1186 2.77821 24.1163 2.75169 24.1163Z" fill="#E8679C"/>
<path d="M48.3252 26.2604L46.2577 25.5981C45.7629 25.4397 45.3786 25.049 45.2228 24.5534C42.8435 16.9877 34.0085 13.5132 25.1155 13.5132C14.7112 13.5132 6.27686 18.2676 6.27686 28.767C6.27686 34.8182 9.24481 39.0566 13.8303 41.5044C13.9431 41.5646 14.0233 41.6716 14.0475 41.7971L15.0748 47.1331C15.1699 47.6357 15.6093 47.9997 16.1209 47.9997H19.5899C20.1016 47.9997 20.5408 47.6357 20.636 47.1331L21.1975 44.1664C21.2389 43.9475 21.443 43.8 21.6642 43.8258C22.7831 43.9556 23.9366 44.0208 25.1155 44.0208C26.6912 44.0208 28.265 43.9044 29.8016 43.6722C30.0274 43.6381 30.2401 43.7866 30.2827 44.0109L30.8737 47.1331C30.9688 47.6357 31.4081 47.9997 31.9197 47.9997H35.3888C35.9004 47.9997 36.3396 47.6357 36.4349 47.1331L37.5019 41.4834C37.526 41.3558 37.608 41.2471 37.7232 41.1872C40.4463 39.7714 42.6991 37.8236 44.1359 35.3404C44.3274 35.0095 44.6302 34.7573 44.9943 34.6407L48.3255 33.5737C49.17 33.3032 49.743 32.518 49.743 31.6313V28.2028C49.7427 27.3161 49.1698 26.5309 48.3252 26.2604Z" fill="#FF7BAC"/>
<path d="M49.4831 27.2098C49.3932 27.0488 49.2828 26.9 49.1531 26.7688C49.1502 26.7659 49.1478 26.7628 49.145 26.7601C48.9206 26.5357 48.642 26.3619 48.3254 26.2605L46.7926 25.7695V27.5726C46.7926 29.8127 45.3653 31.8038 43.244 32.5232C42.2793 32.8321 41.4453 33.4434 40.8341 34.2513C40.0857 35.2405 39.1964 36.1294 38.1943 36.9183C37.0128 37.8484 36.2159 39.1794 35.988 40.6656C35.8256 41.7255 35.6998 42.8563 35.6195 43.6576C35.5578 44.2739 35.0397 44.7433 34.4204 44.7433H31.9197C31.4081 44.7433 30.9689 44.3793 30.8737 43.8767L30.2827 40.7545C30.2402 40.5302 30.0275 40.3817 29.8017 40.4159C28.2652 40.6481 26.6914 40.7644 25.1156 40.7644C23.9366 40.7644 22.7832 40.6993 21.6643 40.5694C21.443 40.5437 21.239 40.6912 21.1975 40.9101L20.636 43.8768C20.5409 44.3794 20.1015 44.7434 19.5899 44.7434H16.1209C15.6093 44.7434 15.17 44.3794 15.0748 43.8768L14.0475 38.5408C14.0233 38.4153 13.9431 38.3083 13.8303 38.2481C9.66344 36.0236 6.83287 32.3204 6.35059 27.1223C6.35059 27.1224 6.35059 27.1225 6.35059 27.1226C6.33913 27.2502 6.32903 27.3787 6.32019 27.5081C6.31999 27.5106 6.31989 27.5132 6.3197 27.5158C6.31883 27.5285 6.31805 27.5413 6.31727 27.5542C6.3096 27.6704 6.30289 27.7875 6.29735 27.9053C6.29512 27.9541 6.29357 28.0036 6.29172 28.0527C6.28822 28.1425 6.28472 28.2323 6.28249 28.323C6.27909 28.4701 6.27686 28.618 6.27686 28.7673C6.27686 29.5238 6.3232 30.2518 6.41336 30.9516C6.52372 31.809 6.70045 32.6233 6.93731 33.3959C6.95023 33.4382 6.96373 33.48 6.97704 33.522C7.00998 33.6259 7.04418 33.7294 7.07954 33.8325C7.09363 33.8736 7.10762 33.9149 7.12209 33.9557C7.21954 34.2308 7.32495 34.5002 7.43813 34.7638C7.45018 34.7918 7.46213 34.8199 7.47428 34.8477C7.53004 34.9752 7.58746 35.1017 7.64692 35.2267C7.65673 35.2474 7.66703 35.2678 7.67694 35.2884C7.73232 35.4033 7.78954 35.5174 7.84822 35.6307C7.85832 35.6502 7.86814 35.6698 7.87824 35.6892C7.94217 35.8109 8.00804 35.931 8.07546 36.0501C8.09013 36.0759 8.105 36.1016 8.11977 36.1274C8.33807 36.5066 8.57415 36.8722 8.82714 37.224C8.85133 37.2576 8.87601 37.2909 8.90049 37.3242C8.96189 37.4079 9.02427 37.4908 9.08761 37.573C9.11258 37.6054 9.13735 37.6378 9.16252 37.6699C9.24821 37.7788 9.33497 37.8868 9.42396 37.9929C9.42474 37.9939 9.42561 37.9949 9.42639 37.9959C9.51548 38.102 9.6068 38.2064 9.69919 38.3098C9.72718 38.3411 9.75574 38.372 9.78401 38.4031C9.85299 38.4789 9.92294 38.5539 9.99367 38.628C10.0222 38.658 10.0506 38.6881 10.0795 38.7177C10.1763 38.8175 10.2743 38.9163 10.3744 39.0132C10.3746 39.0134 10.3749 39.0137 10.3751 39.0139C10.4866 39.122 10.6001 39.2282 10.7155 39.3328C10.9463 39.5419 11.1847 39.7438 11.4304 39.9388C11.6761 40.1338 11.9291 40.3218 12.1891 40.5028C12.3191 40.5934 12.4509 40.6821 12.5844 40.769C12.7046 40.8473 12.8265 40.9238 12.9494 40.9993C12.9847 41.021 13.0204 41.0423 13.056 41.0638C13.1488 41.1198 13.2422 41.1749 13.3361 41.2292C13.3733 41.2507 13.4104 41.2724 13.4478 41.2935C13.5742 41.3652 13.7013 41.436 13.8303 41.5048C13.8584 41.5198 13.8846 41.5378 13.9084 41.5583C13.9298 41.5767 13.9485 41.5977 13.9657 41.6198C13.9709 41.6263 13.9752 41.6332 13.9799 41.6401C13.9916 41.6572 14.0021 41.6751 14.0113 41.6938C14.015 41.7013 14.0187 41.7086 14.022 41.7163C14.0328 41.7424 14.042 41.7693 14.0474 41.7976L15.0747 47.1336C15.0866 47.1964 15.1039 47.257 15.126 47.3151C15.1371 47.3442 15.1493 47.3726 15.1627 47.4002C15.1761 47.4279 15.1907 47.4548 15.2064 47.4811C15.222 47.5073 15.2387 47.5328 15.2565 47.5573C15.2743 47.5821 15.2931 47.606 15.3129 47.629C15.3354 47.6552 15.3593 47.6798 15.3841 47.7035C15.3919 47.7109 15.4002 47.7179 15.4081 47.7252C15.426 47.7414 15.4443 47.7569 15.4631 47.7718C15.4727 47.7792 15.4823 47.7865 15.492 47.7937C15.5114 47.8079 15.5313 47.8214 15.5516 47.8342C15.5608 47.8401 15.5698 47.8461 15.5791 47.8516C15.6086 47.8691 15.6388 47.8855 15.67 47.9001C15.6705 47.9003 15.6708 47.9005 15.6713 47.9007C15.7025 47.9153 15.7347 47.9279 15.7673 47.9394C15.7776 47.9429 15.7882 47.946 15.7986 47.9493C15.8218 47.9566 15.8454 47.9634 15.8693 47.9692C15.8814 47.9721 15.8935 47.9748 15.9057 47.9773C15.9299 47.9823 15.9543 47.9863 15.979 47.9896C15.9902 47.9911 16.0013 47.9929 16.0124 47.994C16.048 47.9976 16.0839 48 16.1203 48.0001C16.1205 48.0001 16.1207 48.0001 16.1209 48.0001H19.5899C19.7499 48.0001 19.9026 47.9645 20.0401 47.9003C20.095 47.8746 20.1476 47.8443 20.1971 47.8099C20.2466 47.7755 20.2931 47.737 20.3362 47.6947C20.4007 47.6314 20.4573 47.5596 20.5043 47.481C20.5668 47.3761 20.6121 47.2592 20.6359 47.1335L21.1974 44.1668V44.1667C21.2021 44.142 21.2095 44.1186 21.218 44.0959C21.2206 44.0891 21.2236 44.0828 21.2265 44.0762C21.2337 44.0599 21.2416 44.0443 21.2507 44.0292C21.2543 44.0232 21.2577 44.0172 21.2616 44.0113C21.2747 43.9918 21.2888 43.973 21.3048 43.9561C21.3483 43.9101 21.4026 43.8759 21.4621 43.8531C21.4678 43.8508 21.4735 43.8487 21.4793 43.8467C21.4936 43.842 21.5078 43.8378 21.5227 43.8345C21.534 43.832 21.5454 43.8303 21.557 43.8287C21.5682 43.8271 21.5791 43.8252 21.5904 43.8246C21.6146 43.8231 21.6392 43.8232 21.6641 43.8261C21.8505 43.8478 22.0383 43.867 22.2267 43.885C22.2738 43.8896 22.321 43.894 22.3682 43.8982C22.5565 43.9153 22.7455 43.9314 22.9355 43.9449C22.9365 43.945 22.9374 43.945 22.9383 43.9451C23.1284 43.9586 23.3196 43.9696 23.5113 43.9796C23.5595 43.9821 23.6078 43.9844 23.6562 43.9867C23.8488 43.9958 24.0418 44.0036 24.236 44.0091C24.5274 44.0173 24.8206 44.0213 25.1153 44.0213C25.5092 44.0213 25.903 44.014 26.2962 43.9996C26.4975 43.9921 26.6986 43.9827 26.8995 43.9714C26.92 43.9702 26.9403 43.9686 26.9608 43.9674C27.1433 43.9568 27.3256 43.9451 27.5076 43.9313C27.5119 43.931 27.516 43.9305 27.5203 43.9302C27.9194 43.8998 28.3172 43.862 28.7131 43.8166C28.7143 43.8165 28.7155 43.8163 28.7167 43.8161C28.8978 43.7954 29.0784 43.7732 29.2587 43.7494C29.3458 43.7378 29.4326 43.7248 29.5194 43.7126C29.615 43.6991 29.7109 43.6864 29.8062 43.672C29.9995 43.6427 30.1818 43.7514 30.2554 43.9247C30.2564 43.9269 30.2578 43.9288 30.2588 43.9312C30.2691 43.9566 30.2771 43.9834 30.2824 44.0114L30.5778 45.5725L30.8733 47.1336C30.9684 47.6362 31.4077 48.0002 31.9193 48.0002H35.3884C35.3886 48.0002 35.3888 48.0002 35.389 48.0002C35.4254 48.0002 35.4613 47.9978 35.4968 47.9941C35.5081 47.993 35.5191 47.9911 35.5303 47.9897C35.5549 47.9864 35.5794 47.9824 35.6036 47.9774C35.6157 47.9749 35.6279 47.9722 35.6398 47.9693C35.6637 47.9634 35.6873 47.9567 35.7106 47.9493C35.721 47.946 35.7316 47.9429 35.7419 47.9394C35.7747 47.9278 35.8069 47.9151 35.8382 47.9005C35.8384 47.9004 35.8385 47.9003 35.8387 47.9003C35.87 47.8856 35.9003 47.8691 35.9299 47.8516C35.9393 47.8461 35.9482 47.8401 35.9574 47.8342C35.9778 47.8213 35.9978 47.8079 36.0172 47.7936C36.0269 47.7865 36.0364 47.7792 36.0458 47.7719C36.0648 47.757 36.0831 47.7414 36.101 47.7252C36.1091 47.7179 36.1173 47.711 36.1251 47.7036C36.1499 47.6799 36.1738 47.6552 36.1962 47.6291C36.205 47.6189 36.2129 47.608 36.2212 47.5974C36.2506 47.5604 36.2783 47.5221 36.3027 47.4812C36.334 47.4288 36.3609 47.3733 36.3831 47.3152C36.4052 47.2571 36.4224 47.1965 36.4344 47.1337L36.6682 45.8956L36.9112 44.609L37.0636 43.8022L37.5014 41.4839L37.5407 41.276C37.6125 41.2403 37.6415 41.2259 37.7134 41.1904C37.7161 41.1912 37.7178 41.1909 37.7192 41.1901C37.7205 41.1894 37.7215 41.1883 37.7227 41.1877C37.806 41.1445 37.8873 41.0991 37.9696 41.0549C38.0557 41.0086 38.1427 40.9633 38.2278 40.916C38.3017 40.8749 38.3736 40.8319 38.4466 40.79C38.5384 40.7373 38.6311 40.6855 38.7218 40.6315C38.7964 40.587 38.869 40.5407 38.9428 40.4953C39.0297 40.4419 39.1177 40.3893 39.2033 40.3347C39.2803 40.2857 39.3551 40.2347 39.431 40.1846C39.5115 40.1316 39.5931 40.0794 39.6726 40.0253C39.7476 39.9741 39.8206 39.9209 39.8945 39.8687C39.9726 39.8136 40.0517 39.7596 40.1286 39.7034C40.2003 39.6511 40.2698 39.5968 40.3404 39.5434C40.4175 39.4853 40.4956 39.4282 40.5713 39.3689C40.6399 39.3153 40.7061 39.2597 40.7736 39.2051C40.849 39.1442 40.9256 39.0842 40.9996 39.0221C41.0678 38.965 41.1336 38.9058 41.2006 38.8476C41.2717 38.786 41.3438 38.7254 41.4135 38.6626C41.4785 38.6041 41.5411 38.5436 41.605 38.4841C41.6742 38.4197 41.7446 38.3562 41.8124 38.2906C41.8744 38.2307 41.9338 38.1688 41.9946 38.1079C42.0617 38.0406 42.1299 37.9745 42.1956 37.9061C42.2553 37.8438 42.3126 37.7796 42.371 37.7164C42.435 37.6474 42.5002 37.5793 42.5626 37.5091C42.6197 37.4451 42.674 37.379 42.7296 37.314C42.7908 37.2426 42.8533 37.1721 42.9131 37.0995C42.9674 37.0335 43.0189 36.9655 43.0719 36.8985C43.1302 36.8249 43.1898 36.7522 43.2464 36.6774C43.2985 36.6086 43.3477 36.5379 43.3984 36.4681C43.453 36.393 43.509 36.319 43.562 36.2427C43.6115 36.1714 43.6581 36.0981 43.7063 36.026C43.7574 35.9492 43.81 35.8734 43.8595 35.7955C43.921 35.6988 43.9773 35.5986 44.0388 35.5019C44.0753 35.4446 44.1094 35.3859 44.1436 35.3271C44.3309 35.0046 44.6266 34.759 44.9819 34.6452L44.9939 34.6413H44.994L46.6934 34.097L48.3251 33.5743C49.1696 33.3038 49.7426 32.5186 49.7426 31.6319V28.2033C49.7426 27.9004 49.6744 27.61 49.5526 27.3472C49.5312 27.3002 49.508 27.2545 49.4831 27.2098Z" fill="#E8679C"/>
<path d="M33.1967 15.3648C33.3022 14.864 33.6487 14.4476 34.114 14.2345C35.902 13.4161 40.4576 11.4467 41.6287 12.0601C43.0952 12.8283 42.327 21.1213 40.0923 22.3872C37.9337 23.6098 31.6703 22.609 33.1967 15.3648Z" fill="#E8679C"/>
<path d="M39.9869 28.5772C38.6625 28.5772 37.585 27.4997 37.585 26.1753C37.585 25.7695 37.9138 25.4407 38.3195 25.4407C38.7253 25.4407 39.0541 25.7695 39.0541 26.1753C39.0541 26.6896 39.4726 27.1079 39.9868 27.1079C40.5011 27.1079 40.9196 26.6896 40.9196 26.1753C40.9196 25.7695 41.2484 25.4407 41.6542 25.4407C42.0599 25.4407 42.3887 25.7695 42.3887 26.1753C42.3889 27.4997 41.3114 28.5772 39.9869 28.5772Z" fill="#E8679C"/>
<path d="M29.1884 19.6252C29.1112 19.6252 29.0327 19.613 28.9555 19.5871C24.9492 18.2477 20.5364 18.2477 16.5302 19.5871C16.1454 19.7156 15.7291 19.5081 15.6006 19.1233C15.472 18.7385 15.6796 18.3223 16.0644 18.1936C20.3711 16.7538 25.1147 16.7538 29.4214 18.1936C29.8062 18.3223 30.0139 18.7385 29.8852 19.1233C29.7823 19.4309 29.4957 19.6252 29.1884 19.6252Z" fill="#E8679C"/>
<path d="M22.7427 18.5836C27.8744 18.5836 32.0345 14.4235 32.0345 9.29179C32.0345 4.16008 27.8744 0 22.7427 0C17.611 0 13.4509 4.16008 13.4509 9.29179C13.4509 14.4235 17.611 18.5836 22.7427 18.5836Z" fill="#FFB125"/>
<path d="M41.0065 13.021C39.9868 13.021 37.5173 13.8614 34.5621 15.2142C34.4007 15.2881 34.2842 15.4275 34.2506 15.5869C33.8199 17.6308 34.0503 19.276 34.9169 20.3441C35.0182 20.4689 35.1294 20.5865 35.2491 20.6964C35.3885 20.8245 35.6132 20.7527 35.6595 20.5693C36.6866 16.5014 41.671 13.021 41.0065 13.021Z" fill="#FF7BAC"/>
<path d="M29.427 2.8385L16.2891 15.9765C19.9262 19.4905 25.723 19.4529 29.3132 15.8626C32.9034 12.2724 32.9409 6.47565 29.427 2.8385Z" fill="#FF901D"/>
<path d="M22.5316 13.794C20.9492 13.7685 19.8772 12.9134 19.8772 12.2882C19.8772 11.9818 20.1451 11.5607 20.4642 11.5607C20.8854 11.5607 21.2299 12.454 22.5316 12.5561V9.55707C21.3831 9.14874 20.1069 8.6893 20.1069 7.05575C20.1069 5.44776 21.3193 4.80965 22.5316 4.68199V4.31193C22.5316 4.15882 22.6847 4.01843 22.9018 4.01843C23.0932 4.01843 23.2847 4.15882 23.2847 4.31193V4.65654C24.1524 4.68209 25.3777 4.95004 25.3777 5.57542C25.3777 5.81792 25.199 6.30281 24.8161 6.30281C24.5099 6.30281 24.178 5.89447 23.2847 5.83064V8.42125C24.3949 8.82959 25.6073 9.39113 25.6073 11.1268C25.6073 12.6965 24.663 13.5643 23.2847 13.7558V14.1897C23.2847 14.3428 23.0933 14.4832 22.9018 14.4832C22.6848 14.4832 22.5316 14.3428 22.5316 14.1897V13.794ZM22.6082 8.17885V5.85619C21.8935 5.94548 21.3831 6.26453 21.3831 6.92819C21.3831 7.65558 21.9318 7.92363 22.6082 8.17885ZM23.208 9.83785V12.5306C23.8971 12.4029 24.331 11.9946 24.331 11.2671C24.331 10.4632 23.8334 10.1059 23.208 9.83785Z" fill="#DD7219"/>
</svg>
