<svg width="36" height="24" viewBox="0 0 36 24" fill="none" xmlns="http://www.w3.org/2000/svg">
<path d="M12.9512 15.2727C12.9512 17.9723 15.216 20.1685 17.9999 20.1685C20.7837 20.1685 23.0486 17.9723 23.0486 15.2727C23.0486 12.5732 20.7837 10.3769 17.9999 10.3769C15.216 10.3769 12.9512 12.5732 12.9512 15.2727ZM21.912 14.7405H20.7443C20.4885 13.498 19.3553 12.5588 17.9999 12.5588C16.4566 12.5588 15.2011 13.7762 15.2011 15.2727C15.2011 16.7691 16.4567 17.9866 17.9999 17.9866C19.3553 17.9866 20.4885 17.0474 20.7443 15.8048H21.912C21.644 17.6664 19.9922 19.1042 17.9999 19.1042C15.8212 19.1042 14.0487 17.3853 14.0487 15.2727C14.0487 13.16 15.8212 11.4412 17.9999 11.4412C19.9922 11.4412 21.644 12.879 21.912 14.7405ZM19.701 15.2727C19.701 16.1823 18.9378 16.9223 17.9998 16.9223C17.0618 16.9223 16.2986 16.1823 16.2986 15.2727C16.2986 14.3631 17.0618 13.6231 17.9998 13.6231C18.9378 13.6231 19.701 14.3631 19.701 15.2727Z" fill="#8397FF"/>
<path d="M28.111 21.2727V7.64971H24.736V4.90915H23.6385V7.64971H12.3612V4.90915H11.2636V7.64971H7.88867V21.2727H8.98624V8.71403H27.0134V21.2727H28.111Z" fill="#8397FF"/>
<path d="M7.3125 22.8958H9.01369V24H10.1112V22.8958H25.889V24H26.9866V22.8958H28.6872V21.8315H7.3125V22.8958Z" fill="#8397FF"/>
<path d="M18.5489 14.7271H17.4513V15.818H18.5489V14.7271Z" fill="#8397FF"/>
<path d="M25.2985 0.558746H10.701V3.80487H25.2985V0.558746ZM24.2009 2.74063H11.7986V1.62313H24.2009V2.74063Z" fill="#8397FF"/>
<path d="M26.986 0H25.8884V4.36369H26.986V0Z" fill="#8397FF"/>
<path d="M10.1116 0H9.01404V4.36369H10.1116V0Z" fill="#8397FF"/>
<path d="M36 8.19501H29.25V9.25932H36V8.19501Z" fill="#8397FF"/>
<path d="M34.8746 9.83124H30.3746V10.8956H34.8746V9.83124Z" fill="#8397FF"/>
<path d="M6.74998 8.19501H0V9.25932H6.74998V8.19501Z" fill="#8397FF"/>
<path d="M32.0759 3.33026C30.4828 3.58519 29.2634 4.9296 29.2634 6.5455V7.63641H30.361V6.5455C30.361 5.33507 31.3764 4.35039 32.6247 4.35039C33.8729 4.35039 34.8884 5.33507 34.8884 6.5455V7.63641H35.9859V6.5455C35.9859 4.9296 34.7666 3.58512 33.1735 3.33026V1.64972H27.5623V2.71403H32.076L32.0759 3.33026Z" fill="#8397FF"/>
<path d="M1.11111 6.5455C1.11111 5.33507 2.12655 4.35039 3.37479 4.35039C4.62303 4.35039 5.63847 5.33507 5.63847 6.5455V7.63641H6.73603V6.5455C6.73603 4.9296 5.51669 3.58512 3.92357 3.33026V2.71403H8.43722V1.64972H2.82601V3.33026C1.23289 3.58519 0.0135498 4.9296 0.0135498 6.5455V7.63641H1.11111V6.5455Z" fill="#8397FF"/>
<path d="M5.62501 9.83124H1.125V10.8956H5.62501V9.83124Z" fill="#8397FF"/>
</svg>
