<svg width="14" height="12" viewBox="0 0 14 12" fill="none" xmlns="http://www.w3.org/2000/svg">
<path id="telegramm_red" fill-rule="evenodd" clip-rule="evenodd" d="M7.45757 9.33977C6.91988 9.8707 6.38799 10.3923 5.86068 10.9185C5.67632 11.1025 5.46892 11.2042 5.20448 11.1897C5.02438 11.1799 4.92328 11.0988 4.86809 10.9248C4.46455 9.65297 4.05442 8.38326 3.65271 7.11082C3.61357 6.98693 3.55462 6.9274 3.43185 6.88931C2.48034 6.5941 1.53073 6.29249 0.582337 5.98717C0.441915 5.94196 0.299738 5.88385 0.177903 5.80182C-0.0341451 5.6591 -0.0644069 5.43218 0.129233 5.26787C0.308154 5.11603 0.520273 4.98891 0.737585 4.90168C1.93989 4.41923 3.14832 3.95241 4.35457 3.48002C7.25623 2.34369 10.158 1.20747 13.0594 0.070589C13.6157 -0.147359 14.0478 0.154904 13.9957 0.763502C13.9614 1.16469 13.8585 1.56065 13.7759 1.95671C13.1329 5.0395 12.4874 8.12173 11.8427 11.2042C11.8415 11.2101 11.8411 11.2162 11.8398 11.2221C11.6821 11.9272 11.1772 12.12 10.6015 11.6902C9.60204 10.9439 8.60512 10.1943 7.60698 9.44632C7.55978 9.41096 7.51097 9.37778 7.45757 9.33977ZM5.24803 10.3105C5.26358 10.2381 5.27435 10.2047 5.27751 10.1706C5.34093 9.4774 5.40722 8.78441 5.46337 8.09056C5.47587 7.93657 5.52114 7.82285 5.63854 7.71593C7.15313 6.33647 8.66303 4.95169 10.1741 3.5683C10.604 3.17478 11.0356 2.78322 11.4613 2.38512C11.506 2.34333 11.5157 2.26301 11.5416 2.20058C11.4759 2.18168 11.4022 2.13378 11.346 2.14966C11.2163 2.18637 11.0855 2.23874 10.9717 2.31135C8.72499 3.74522 6.48117 5.18371 4.23439 6.61743C4.12007 6.69037 4.08745 6.75041 4.13329 6.89015C4.48905 7.97451 4.8345 9.06236 5.18368 10.1489C5.19736 10.1915 5.21666 10.2322 5.24803 10.3105Z" fill="white"/>
</svg>
