<svg width="43" height="40" viewBox="0 0 43 40" fill="none" xmlns="http://www.w3.org/2000/svg">
<path d="M42.5667 34.0848L41.3467 28.8812C41.27 28.5539 40.9418 28.3512 40.615 28.4275C40.2876 28.5042 40.0845 28.8318 40.1613 29.1592L41.3813 34.3627C41.6336 35.4389 41.3845 36.553 40.6978 37.4193C40.0112 38.2855 38.9834 38.7823 37.8779 38.7823H4.81769C3.7122 38.7823 2.68442 38.2855 1.99779 37.4193C1.31116 36.553 1.06199 35.4388 1.31433 34.3627L2.53549 29.1543C2.6122 28.827 2.40915 28.4993 2.08176 28.4226C1.75446 28.3456 1.4269 28.5489 1.3501 28.8763L0.128862 34.0848C-0.208866 35.5251 0.124525 37.0162 1.04356 38.1756C1.9626 39.335 3.33819 40 4.81769 40H37.8778C39.3573 40 40.7329 39.335 41.652 38.1756C42.571 37.0162 42.9044 35.5251 42.5667 34.0848Z" fill="white"/>
<path d="M40.4549 25.079L39.223 19.8249C39.5759 19.6348 39.8749 19.3556 40.0917 19.0059C40.4185 18.479 40.5205 17.8563 40.3789 17.2526C39.7848 14.719 38.3346 12.4334 36.2953 10.817C34.5849 9.46122 32.5108 8.61665 30.351 8.37941V6.48096C30.351 2.90738 27.4437 0 23.8702 0H18.0467C14.4732 0 11.5658 2.9073 11.5658 6.48096V8.49207C9.68851 8.82846 7.90331 9.625 6.39938 10.8171C4.36008 12.4336 2.90985 14.7191 2.31587 17.2527C2.17436 17.8564 2.27643 18.4791 2.60315 19.0061C2.82004 19.3557 3.119 19.6349 3.47173 19.8249L2.2359 25.0959C2.15926 25.4233 2.36232 25.7509 2.68971 25.8276C2.73649 25.8386 2.78319 25.8439 2.82922 25.8439C3.10549 25.8438 3.35557 25.6545 3.42137 25.3739L4.65712 20.103C4.67821 20.1022 4.69873 20.0996 4.71966 20.0983C4.75135 20.0964 4.78304 20.0944 4.81439 20.0912C4.84833 20.0878 4.88194 20.0831 4.91546 20.0783C4.9464 20.0738 4.97717 20.0693 5.00769 20.0636C5.04088 20.0575 5.07356 20.0499 5.10625 20.0424C5.13636 20.0354 5.16638 20.0285 5.19598 20.0203C5.22817 20.0115 5.25977 20.0013 5.29146 19.9912C5.32056 19.9818 5.34967 19.9726 5.37835 19.9621C5.40954 19.9507 5.43998 19.938 5.47058 19.9253C5.4986 19.9137 5.52662 19.9023 5.55406 19.8896C5.58408 19.8757 5.61326 19.8605 5.64262 19.8453C5.66938 19.8315 5.69623 19.818 5.72242 19.8033C5.75119 19.787 5.77904 19.7693 5.80706 19.7518C5.83241 19.736 5.85793 19.7206 5.88261 19.7039C5.91005 19.6853 5.93631 19.6652 5.96291 19.6454C5.98676 19.6277 6.01086 19.6104 6.03405 19.5917C6.05998 19.5709 6.08466 19.5485 6.1096 19.5265C6.13178 19.507 6.15429 19.488 6.17573 19.4676C6.19999 19.4445 6.22292 19.42 6.24619 19.3958C6.26662 19.3747 6.28747 19.3541 6.30715 19.332C6.32975 19.3067 6.35076 19.28 6.37227 19.2537C6.3907 19.2311 6.4098 19.2091 6.4274 19.1858C6.44833 19.158 6.46751 19.1288 6.48727 19.1001C6.50345 19.0765 6.52046 19.0535 6.5358 19.0293C6.55498 18.9989 6.57224 18.9672 6.59 18.9359C6.60385 18.9115 6.61861 18.8879 6.63162 18.863C6.64913 18.8295 6.66447 18.7944 6.6804 18.7598C6.69149 18.7357 6.70375 18.7123 6.71409 18.6877C6.73068 18.6483 6.74478 18.6074 6.75929 18.5668C6.76679 18.5457 6.77555 18.5253 6.78255 18.504C6.8029 18.4414 6.82083 18.3775 6.83617 18.3124C7.576 15.1568 10.3564 12.953 13.5974 12.953H29.0976C32.3387 12.953 35.119 15.1569 35.8588 18.3124C35.8726 18.3711 35.8892 18.4284 35.907 18.485C35.9103 18.4952 35.9135 18.5057 35.9168 18.5158C35.9347 18.5699 35.9546 18.6228 35.9762 18.6748C35.9803 18.6845 35.9845 18.6942 35.9888 18.7039C36.0119 18.7574 36.0363 18.8101 36.0631 18.8611C36.0902 18.9128 36.1195 18.9626 36.1502 19.0116C36.1551 19.0194 36.1599 19.0274 36.165 19.0353C36.1952 19.0823 36.227 19.128 36.2603 19.1724C36.2658 19.1798 36.2715 19.187 36.277 19.1942C36.3475 19.2859 36.4244 19.3717 36.5069 19.4512C36.5124 19.4565 36.5177 19.4618 36.5232 19.4671C36.564 19.5056 36.6061 19.5424 36.6494 19.5779C36.6555 19.5829 36.6618 19.5878 36.6681 19.5928C36.7584 19.665 36.8538 19.7304 36.9536 19.7884C36.9593 19.7917 36.9648 19.7951 36.9705 19.7984C37.0195 19.8263 37.0695 19.8523 37.1204 19.8767C37.1273 19.88 37.1343 19.8832 37.1412 19.8864C37.2459 19.9352 37.3544 19.9763 37.4658 20.0093C37.4724 20.0113 37.4791 20.0133 37.4858 20.0153C37.5397 20.0307 37.5944 20.044 37.6496 20.0555C37.6582 20.0573 37.6669 20.0589 37.6756 20.0605C37.732 20.0716 37.7888 20.0811 37.8463 20.088C37.848 20.0882 37.8498 20.0883 37.8515 20.0885C37.9075 20.0951 37.964 20.0991 38.0208 20.1015C38.0264 20.1017 38.032 20.1026 38.0376 20.1027L39.2695 25.3569C39.3463 25.6844 39.6747 25.8873 40.0011 25.8107C40.3285 25.734 40.5317 25.4064 40.4549 25.079ZM12.7833 6.48096H12.7834C12.7834 3.57875 15.1445 1.21766 18.0467 1.21766H23.8701C26.7723 1.21766 29.1333 3.57883 29.1333 6.48096V8.31044C29.1213 8.31036 29.1094 8.31036 29.0974 8.31036H28.2404V6.48087C28.2404 4.07108 26.2799 2.11059 23.8701 2.11059H18.0466C15.6368 2.11059 13.6763 4.07108 13.6763 6.48087V8.31036H13.5972C13.4726 8.31036 13.348 8.31303 13.2236 8.31711C13.2058 8.3177 13.1881 8.31811 13.1704 8.31878C13.0462 8.32345 12.9222 8.33012 12.7984 8.3388C12.7934 8.33913 12.7884 8.33921 12.7833 8.33963V6.48096ZM27.0229 6.48087V8.31036H14.8939V6.48087C14.8939 4.74253 16.3082 3.32816 18.0467 3.32816H23.8702C25.6085 3.32816 27.0229 4.74253 27.0229 6.48087ZM39.057 18.3643C38.9016 18.6149 38.658 18.7899 38.371 18.8572C37.8895 18.9698 37.4063 18.7475 37.1676 18.3424C37.1561 18.323 37.1464 18.3026 37.1361 18.2824C37.1299 18.2701 37.1228 18.2584 37.1169 18.2457C37.0862 18.1792 37.0617 18.1086 37.0443 18.0346C36.1748 14.3258 32.907 11.7355 29.0976 11.7355H13.5972C9.78783 11.7355 6.52004 14.3258 5.65054 18.0345C5.59166 18.2854 5.4519 18.4985 5.26261 18.6488C5.07331 18.7991 4.8344 18.8867 4.57731 18.8867C4.49276 18.8867 4.40753 18.8767 4.32398 18.8571C4.03695 18.7898 3.79328 18.6148 3.63793 18.3642C3.48257 18.1138 3.43412 17.8177 3.50134 17.5307C4.03295 15.2633 5.33074 13.2179 7.1558 11.7714C8.62771 10.6047 10.4006 9.86099 12.2532 9.61682C12.2535 9.61682 12.2538 9.61682 12.2541 9.61674C12.3637 9.60231 12.4735 9.58972 12.5835 9.5788C12.5888 9.5783 12.5941 9.5778 12.5995 9.5773C12.8119 9.55653 13.0247 9.54252 13.2367 9.53493C13.2554 9.53427 13.2743 9.53368 13.2931 9.5331C13.3948 9.53001 13.4963 9.52802 13.5974 9.52802H14.2853H27.6318H29.0976C29.19 9.52802 29.2842 9.52968 29.3792 9.53235C29.394 9.53277 29.4087 9.53327 29.4235 9.53377C29.5165 9.53685 29.61 9.54086 29.7042 9.54636C31.821 9.67195 33.8728 10.4506 35.539 11.7714C37.364 13.2179 38.6619 15.2633 39.1936 17.5307C39.2609 17.8177 39.2124 18.1138 39.057 18.3643Z" fill="white"/>
<path d="M27.2477 20.0829C23.994 16.8293 18.7004 16.8293 15.4469 20.0828C13.8708 21.6588 13.0029 23.7543 13.0029 25.9831C13.0029 28.212 13.8708 30.3074 15.4469 31.8835C17.0737 33.5102 19.2105 34.3235 21.3473 34.3235C23.4842 34.3235 25.6209 33.5101 27.2477 31.8835C30.5011 28.63 30.5011 23.3363 27.2477 20.0829ZM26.3866 31.0224C23.6079 33.8012 19.0868 33.8012 16.308 31.0224C14.9619 29.6764 14.2207 27.8868 14.2207 25.9831C14.2207 24.0795 14.9619 22.2898 16.3081 20.9439C17.6974 19.5544 19.5223 18.8598 21.3474 18.8598C23.1725 18.8598 24.9974 19.5544 26.3867 20.9439C29.1653 23.7226 29.1653 28.2437 26.3866 31.0224Z" fill="white"/>
<path d="M21.9167 24.8821V22.1566C22.8565 22.2238 23.2056 22.6534 23.5278 22.6534C23.9306 22.6534 24.1185 22.1432 24.1185 21.8881C24.1185 21.2303 22.8297 20.9483 21.9167 20.9215V20.559C21.9167 20.3979 21.7153 20.2502 21.5139 20.2502C21.2857 20.2502 21.1246 20.3979 21.1246 20.559V20.9483C19.8492 21.0826 18.5738 21.7539 18.5738 23.4455C18.5738 25.164 19.9163 25.6473 21.1246 26.0769V29.2319C19.7552 29.1245 19.3927 28.1847 18.9496 28.1847C18.614 28.1847 18.332 28.6278 18.332 28.95C18.332 29.6078 19.4597 30.5074 21.1245 30.5342H21.1246V30.9505C21.1246 31.1116 21.2857 31.2593 21.5139 31.2593C21.7153 31.2593 21.9167 31.1116 21.9167 30.9505V30.494C23.3667 30.2926 24.3602 29.3797 24.3602 27.7283C24.3602 25.9024 23.0847 25.3117 21.9167 24.8821ZM21.2051 24.6269C20.4935 24.3585 19.9162 24.0764 19.9162 23.3112C19.9162 22.6131 20.4532 22.2775 21.2051 22.1835V24.6269ZM21.8361 29.2051V26.3722C22.4939 26.6542 23.0174 27.0301 23.0175 27.8759C23.0175 28.6412 22.5611 29.0708 21.8361 29.2051Z" fill="white"/>
</svg>
