<svg width="42" height="40" viewBox="0 0 42 40" fill="none" xmlns="http://www.w3.org/2000/svg">
<path d="M41.5441 32.7778L32.9065 24.2373C32.6124 23.9466 32.2216 23.7865 31.8057 23.7865C31.518 23.7865 31.2432 23.8647 31.0032 24.0082L26.1507 19.2102C25.902 18.9644 25.4988 18.9644 25.2501 19.2102C25.0014 19.4561 25.0014 19.8548 25.2501 20.1007L30.0692 24.8657L28.2938 26.6212L19.4545 17.8811L21.2299 16.1256L22.4127 17.295C22.6612 17.5409 23.0645 17.5408 23.3132 17.295C23.5619 17.0491 23.5619 16.6504 23.3131 16.4046L22.1304 15.2352L25.2083 12.1919L25.4519 12.4327C25.7543 12.7318 26.1566 12.8966 26.5845 12.8966C27.0124 12.8966 27.4146 12.7318 27.7172 12.4327L28.8517 11.3109C29.1542 11.0118 29.3209 10.614 29.3209 10.1911C29.3209 9.76798 29.1542 9.37022 28.8517 9.07117L20.1468 0.463949C19.8444 0.164815 19.4421 0 19.0141 0C18.5862 0 18.184 0.164734 17.8816 0.463868L16.747 1.58562C16.4445 1.88475 16.2778 2.28243 16.2778 2.70558C16.2778 3.12857 16.4445 3.52633 16.7469 3.82547L16.9905 4.06628L7.25814 13.6893L7.01459 13.4485C6.39009 12.8311 5.37388 12.8311 4.74938 13.4486L3.61489 14.5703C3.31244 14.8695 3.14575 15.2672 3.14575 15.6902C3.14575 16.1133 3.31244 16.5111 3.61489 16.8101L12.3196 25.4172C12.6222 25.7163 13.0244 25.881 13.4523 25.881C13.8802 25.881 14.2824 25.7163 14.5849 25.4172L15.7195 24.2954C15.7196 24.2954 15.7196 24.2954 15.7196 24.2954C16.3439 23.6779 16.344 22.6732 15.7196 22.0556L15.476 21.8148L18.5538 18.7716L27.4266 27.5447C27.2815 27.782 27.2024 28.0537 27.2024 28.3382C27.2024 28.7493 27.3643 29.1359 27.6583 29.4267L36.2958 37.9671C36.5899 38.2579 36.9808 38.4179 37.3968 38.4179C37.8126 38.4179 38.2034 38.2578 38.4976 37.9671L41.5441 34.9549C41.8381 34.6642 42 34.2776 42 33.8664C42 33.4552 41.8381 33.0685 41.5441 32.7778ZM17.6476 2.47612L18.7822 1.35429C18.8442 1.29305 18.9266 1.25931 19.0141 1.25931C19.1017 1.25931 19.1842 1.29305 19.2461 1.35437L27.951 9.96143C28.013 10.0227 28.0472 10.1042 28.0472 10.1908C28.0472 10.2774 28.013 10.359 27.9509 10.4203L26.8165 11.542C26.6925 11.6646 26.4763 11.6647 26.3524 11.5421L17.6476 2.93504C17.5856 2.87372 17.5514 2.79229 17.5514 2.70558C17.5514 2.61888 17.5856 2.53752 17.6476 2.47612ZM14.819 23.4049L13.6843 24.5267C13.5604 24.6492 13.3442 24.6492 13.2203 24.5267L4.51543 15.9196C4.45349 15.8584 4.41929 15.7768 4.41929 15.6902C4.41929 15.6036 4.45341 15.5221 4.51551 15.4608L5.64992 14.339C5.7139 14.2757 5.7979 14.2441 5.88199 14.2441C5.96607 14.2441 6.05007 14.2757 6.11397 14.339L14.8188 22.946C14.9468 23.0725 14.9468 23.2783 14.819 23.4049ZM18.1035 17.4358C18.1034 17.4359 18.1034 17.4359 18.1033 17.436L14.5753 20.9243L8.15868 14.5798L17.8911 4.95687L24.3077 11.3014L20.7801 14.7893C20.7798 14.7895 20.7796 14.7897 20.7794 14.7899L18.1035 17.4358ZM40.6434 34.0643L37.5969 37.0766C37.5248 37.1479 37.4406 37.1586 37.3968 37.1586C37.3529 37.1586 37.2686 37.1479 37.1965 37.0766L28.559 28.536C28.4868 28.4646 28.476 28.3813 28.476 28.338C28.476 28.2947 28.4868 28.2114 28.559 28.14L28.7443 27.9569L31.6054 25.1278C31.6775 25.0564 31.7618 25.0458 31.8057 25.0458C31.8495 25.0458 31.9337 25.0564 32.0058 25.1278L40.6434 33.6682C40.7156 33.7396 40.7264 33.8229 40.7264 33.8662C40.7264 33.9095 40.7156 33.9929 40.6434 34.0643Z" fill="white"/>
<path d="M24.1853 34.4187H23.2096V31.1007C23.2096 30.3605 22.6007 29.7583 21.8521 29.7583H10.8749C10.5231 29.7583 10.2381 30.0402 10.2381 30.388C10.2381 30.7357 10.5231 31.0176 10.8749 31.0176H21.8521C21.8983 31.0176 21.936 31.0548 21.936 31.1006V34.4186H5.01547V31.1006C5.01547 31.0548 5.05313 31.0176 5.09939 31.0176H6.87373C7.22548 31.0176 7.51054 30.7357 7.51054 30.388C7.51054 30.0402 7.22548 29.7583 6.87373 29.7583H5.09939C4.35077 29.7583 3.74186 30.3605 3.74186 31.1007V34.4187H2.76618C1.24089 34.4187 0 35.6457 0 37.1538V38.9466C0 39.5275 0.477914 40 1.06542 40H25.886C26.4735 40 26.9515 39.5275 26.9515 38.9466V37.1538C26.9515 35.6457 25.7106 34.4187 24.1853 34.4187ZM25.6779 38.7407H1.27362V37.1538C1.27362 36.3401 1.94316 35.678 2.76618 35.678H24.1854C25.0083 35.678 25.6779 36.34 25.6779 37.1538V38.7407Z" fill="white"/>
</svg>
