<svg width="31" height="40" viewBox="0 0 31 40" fill="none" xmlns="http://www.w3.org/2000/svg">
<path d="M26.4606 34.5586H4.53939C4.20997 34.5586 3.94299 34.8238 3.94299 35.1509C3.94299 35.478 4.20997 35.7433 4.53939 35.7433H26.4606C26.79 35.7433 27.057 35.478 27.057 35.1509C27.057 34.8238 26.79 34.5586 26.4606 34.5586Z" fill="white"/>
<path d="M26.4607 13.3826H17.17C16.8406 13.3826 16.5736 13.6478 16.5736 13.9749C16.5736 14.3021 16.8406 14.5673 17.17 14.5673H26.4607C26.7901 14.5673 27.0571 14.302 27.0571 13.9749C27.0571 13.6478 26.7901 13.3826 26.4607 13.3826Z" fill="white"/>
<path d="M26.4607 20.6782H17.17C16.8406 20.6782 16.5736 20.9435 16.5736 21.2706C16.5736 21.5977 16.8406 21.8629 17.17 21.8629H26.4607C26.7901 21.8629 27.0571 21.5977 27.0571 21.2706C27.0571 20.9435 26.7901 20.6782 26.4607 20.6782Z" fill="white"/>
<path d="M26.4607 27.9739H17.17C16.8406 27.9739 16.5736 28.2391 16.5736 28.5662C16.5736 28.8933 16.8406 29.1586 17.17 29.1586H26.4607C26.7901 29.1586 27.0571 28.8933 27.0571 28.5662C27.0571 28.2391 26.7901 27.9739 26.4607 27.9739Z" fill="white"/>
<path d="M30.999 10.8118C30.9987 10.8052 30.9984 10.7986 30.998 10.792C30.9962 10.7666 30.9935 10.7414 30.9885 10.7166C30.9885 10.7165 30.9885 10.7163 30.9884 10.7162C30.9834 10.691 30.9762 10.6665 30.9679 10.6423C30.9659 10.6362 30.9637 10.6303 30.9615 10.6243C30.9527 10.6012 30.9431 10.5784 30.9314 10.5565C30.9309 10.5555 30.9305 10.5546 30.9301 10.5537C30.9179 10.5309 30.9037 10.5092 30.8885 10.4881C30.8848 10.483 30.8811 10.478 30.8773 10.473C30.8612 10.452 30.8443 10.4317 30.8253 10.4129L20.5157 0.173516C20.4968 0.154766 20.4765 0.137969 20.4555 0.122109C20.4502 0.118125 20.445 0.114219 20.4395 0.110391C20.4185 0.0954687 20.3969 0.0815625 20.3742 0.0695312C20.3727 0.06875 20.3711 0.0682031 20.3696 0.0674219C20.3482 0.0563281 20.326 0.046875 20.3034 0.0384375C20.297 0.0360156 20.2906 0.03375 20.2841 0.0315625C20.2601 0.0235156 20.2358 0.0164844 20.211 0.0115625C20.2097 0.0113281 20.2084 0.01125 20.2072 0.0110156C20.1834 0.00648438 20.1593 0.00375 20.1349 0.00210938C20.1277 0.00164062 20.1203 0.00125 20.1131 0.00101562C20.1067 0.000703125 20.1004 0 20.094 0H2.59327C1.16331 0 0 1.15539 0 2.57562V29.3541C0 29.6812 0.266973 29.9465 0.596402 29.9465C0.925831 29.9465 1.1928 29.6812 1.1928 29.3541V2.57562C1.1928 1.80867 1.82106 1.18469 2.59327 1.18469H19.4975V9.58859C19.4975 10.6008 20.3266 11.4242 21.3457 11.4242H29.8072V14.6904C29.8072 15.0175 30.0742 15.2827 30.4036 15.2827C30.733 15.2827 31 15.0175 31 14.6904V10.8318C31 10.8251 30.9992 10.8185 30.999 10.8118ZM21.3457 10.2395C20.9844 10.2395 20.6904 9.9475 20.6904 9.58859V2.02242L28.9637 10.2395H21.3457Z" fill="white"/>
<path d="M30.4036 17.8198C30.0742 17.8198 29.8072 18.0851 29.8072 18.4122V37.4244C29.8072 38.1914 29.1789 38.8154 28.4067 38.8154H2.59327C1.82106 38.8154 1.1928 38.1914 1.1928 37.4244V33.1551C1.1928 32.828 0.925831 32.5628 0.596402 32.5628C0.266973 32.5628 0 32.828 0 33.1551V37.4244C0 38.8447 1.16331 40.0001 2.59327 40.0001H28.4067C29.8366 40.0001 30.9999 38.8447 30.9999 37.4244V18.4122C31 18.085 30.733 17.8198 30.4036 17.8198Z" fill="white"/>
<path d="M8.97816 12.8647C8.83374 12.7536 8.64551 12.7154 8.46884 12.761C6.98845 13.1429 6.17322 14.0813 6.17322 15.4033C6.17322 17.0641 7.35289 17.7903 8.38042 18.2374C8.45625 18.2704 8.5368 18.2866 8.61711 18.2866C8.73015 18.2866 8.84255 18.2544 8.94001 18.1912C9.10669 18.083 9.20714 17.8986 9.20714 17.7008V13.3282C9.20714 13.1468 9.12258 12.9757 8.97816 12.8647ZM8.02724 16.7158C7.54198 16.3658 7.3532 15.9704 7.3532 15.4033C7.3532 15.0315 7.43713 14.5455 8.02724 14.1896V16.7158Z" fill="white"/>
<path d="M14.3723 19.8084C13.5032 19.0058 12.4057 18.493 11.315 18.0756V13.8206C11.9542 13.9474 12.3997 14.1686 12.7747 14.3549C13.1524 14.5424 13.4785 14.7045 13.8633 14.7045C14.991 14.7045 15.6147 13.4746 15.6147 12.6243C15.6147 12.0389 15.2908 11.2251 13.7475 10.6723C13.0637 10.4274 12.196 10.2553 11.3031 10.1837C11.2046 9.37627 10.5103 8.74854 9.67112 8.74854C8.76598 8.74854 8.02925 9.47893 8.02712 10.3774C5.1635 11.0167 3.53358 12.9217 3.53358 15.6654C3.53358 19.1509 6.18797 20.3467 8.02712 21.0271V26.1482C7.23368 25.8776 6.70791 25.4336 6.26718 25.0615C5.82393 24.6872 5.40514 24.3336 4.8627 24.3336C3.86324 24.3336 3.05847 25.4716 3.05847 26.4138C3.05847 27.8963 5.0345 29.6221 8.03279 30.0127C8.10295 30.8492 8.81097 31.5088 9.67112 31.5088C10.5639 31.5088 11.2928 30.7983 11.3144 29.9166C12.6675 29.6392 13.7987 29.044 14.6075 28.1794C15.591 27.1282 16.0897 25.7315 16.0897 24.0281C16.0897 22.256 15.5279 20.8756 14.3723 19.8084ZM10.6418 28.844C10.3511 28.8852 10.1351 29.1324 10.1351 29.4241V29.876C10.1351 30.1302 9.92701 30.3369 9.67112 30.3369C9.41516 30.3369 9.20703 30.1301 9.20703 29.876V29.4831C9.20703 29.1762 8.96861 28.9213 8.66042 28.8988C5.79923 28.6897 4.23838 27.1475 4.23838 26.4138C4.23838 26.0403 4.60595 25.5054 4.8627 25.5054C4.97133 25.5054 5.27866 25.7649 5.50284 25.9543C6.099 26.4577 6.99982 27.2184 8.51718 27.4771C8.68889 27.5062 8.86431 27.4588 8.99724 27.3475C9.13018 27.2362 9.20695 27.0723 9.20695 26.8996V20.6178C9.20695 20.3715 9.05175 20.1514 8.8186 20.0672C6.57262 19.2559 4.7134 18.3647 4.7134 15.6654C4.7134 14.4141 5.113 13.4106 5.90109 12.6831C6.57458 12.0613 7.54722 11.6307 8.71391 11.4379C8.9985 11.3909 9.20703 11.1464 9.20703 10.8599V10.3813C9.20703 10.1271 9.41516 9.92041 9.67112 9.92041C9.92701 9.92041 10.1351 10.1272 10.1351 10.3813V10.7379C10.1351 11.0542 10.3878 11.3134 10.7061 11.3235C12.6924 11.3872 14.4348 11.995 14.4348 12.6244C14.4348 12.8863 14.207 13.5327 13.8633 13.5327C13.7571 13.5327 13.5363 13.4229 13.3025 13.3068C12.7837 13.0492 11.9997 12.6597 10.7698 12.5668C10.606 12.5546 10.4444 12.6106 10.324 12.7213C10.2036 12.8322 10.1351 12.988 10.1351 13.1511V18.4812C10.1351 18.7266 10.2892 18.946 10.521 19.031C12.8338 19.8778 14.9099 20.8974 14.9099 24.0281C14.9099 26.7439 13.3941 28.4542 10.6418 28.844Z" fill="white"/>
<path d="M10.9689 20.9293C10.7864 20.847 10.5743 20.8624 10.4056 20.9704C10.2371 21.0783 10.1353 21.2638 10.1353 21.4629V26.8731C10.1353 27.0514 10.2171 27.2202 10.3576 27.3313C10.4631 27.4148 10.5929 27.459 10.7252 27.459C10.7692 27.459 10.8135 27.4541 10.8571 27.4442C12.5294 27.0631 13.4504 25.9524 13.4504 24.3167C13.4504 22.3051 12.1243 21.4498 10.9689 20.9293ZM11.3152 26.0437V22.4581C11.9914 22.9353 12.2704 23.5038 12.2705 24.3167C12.2705 25.1327 11.9565 25.703 11.3152 26.0437Z" fill="white"/>
</svg>
