<svg width="33" height="40" viewBox="0 0 33 40" fill="none" xmlns="http://www.w3.org/2000/svg">
<path d="M23.406 38.8258H1.17422V9.86287C1.17422 9.53857 0.911328 9.27576 0.587109 9.27576C0.262891 9.27576 0 9.53857 0 9.86287V39.0215C0 39.5611 0.438985 40 0.978516 40H23.406C23.7302 40 23.993 39.7372 23.9931 39.4129C23.9931 39.0886 23.7302 38.8258 23.406 38.8258Z" fill="white"/>
<path d="M31.8509 5.30867L26.8605 0.177813C26.75 0.0641406 26.5982 0 26.4397 0H0.978516C0.438984 0 7.8125e-05 0.439062 0 0.978594V5.55773C0 5.88203 0.262891 6.14484 0.587109 6.14484C0.911328 6.14484 1.17422 5.88203 1.17422 5.55773V1.1743H26.1917L30.843 5.95648V38.8258H27.5156C27.1914 38.8258 26.9285 39.0886 26.9285 39.4129C26.9285 39.7372 27.1914 40 27.5156 40H31.0386C31.5782 40 32.0171 39.5611 32.0171 39.0216V5.71797C32.0171 5.56508 31.9575 5.41828 31.8509 5.30867Z" fill="white"/>
<path d="M31.8507 5.30869L26.8604 0.177834C26.6938 0.00658437 26.44 -0.0466969 26.2187 0.043225C25.9974 0.133147 25.8525 0.348225 25.8525 0.587209V5.71799C25.8525 6.04229 26.1154 6.3051 26.4396 6.3051H31.43C31.666 6.3051 31.879 6.16385 31.9707 5.94643C32.0625 5.72908 32.0153 5.47776 31.8507 5.30869ZM27.0268 5.13088V2.03276L30.04 5.13088H27.0268Z" fill="white"/>
<path d="M18.7259 3.11713H4.58008C4.04047 3.11713 3.60156 3.55611 3.60156 4.09564V7.34041C3.60156 7.88002 4.04055 8.31892 4.58008 8.31892H18.7259C19.2654 8.31892 19.7044 7.87994 19.7044 7.34049V4.09556C19.7044 3.55595 19.2654 3.11713 18.7259 3.11713ZM18.5302 7.14463H4.77578V4.29127H18.5302V7.14463Z" fill="white"/>
<path d="M9.46529 11.3915C9.20725 11.1955 8.83889 11.2455 8.64264 11.5037L6.04865 14.9168L5.26959 14.2351C5.02561 14.0215 4.65475 14.0463 4.44115 14.2903C4.22764 14.5344 4.2524 14.9052 4.49639 15.1188L5.74881 16.2146C5.85631 16.3086 5.99389 16.3599 6.13537 16.3599C6.15506 16.3599 6.17483 16.3588 6.19467 16.357C6.35654 16.3405 6.50444 16.2577 6.60287 16.1281L9.57748 12.2141C9.77365 11.956 9.72342 11.5877 9.46529 11.3915Z" fill="white"/>
<path d="M27.1338 11.2717H12.3469C12.0227 11.2717 11.7598 11.5345 11.7598 11.8588C11.7598 12.1831 12.0227 12.4459 12.3469 12.4459H27.1338C27.458 12.4459 27.7209 12.1831 27.7209 11.8588C27.7209 11.5345 27.458 11.2717 27.1338 11.2717Z" fill="white"/>
<path d="M21.9473 13.2286H12.3469C12.0227 13.2286 11.7598 13.4914 11.7598 13.8157C11.7598 14.14 12.0227 14.4028 12.3469 14.4028H21.9473C22.2715 14.4028 22.5344 14.14 22.5344 13.8157C22.5344 13.4914 22.2715 13.2286 21.9473 13.2286Z" fill="white"/>
<path d="M24.1391 15.1856H12.3469C12.0227 15.1856 11.7598 15.4484 11.7598 15.7727C11.7598 16.097 12.0227 16.3598 12.3469 16.3598H24.1391C24.4633 16.3598 24.7262 16.097 24.7262 15.7727C24.7262 15.4484 24.4633 15.1856 24.1391 15.1856Z" fill="white"/>
<path d="M9.46529 19.3761C9.20725 19.18 8.83889 19.2301 8.64264 19.4883L6.04865 22.9014L5.26959 22.2197C5.02561 22.0062 4.65475 22.0309 4.44115 22.2749C4.22764 22.519 4.2524 22.8898 4.49639 23.1033L5.74881 24.1992C5.85631 24.2932 5.99389 24.3444 6.13537 24.3444C6.15506 24.3444 6.17483 24.3434 6.19467 24.3416C6.35654 24.3251 6.50444 24.2423 6.60287 24.1126L9.57748 20.1987C9.77365 19.9406 9.72342 19.5724 9.46529 19.3761Z" fill="white"/>
<path d="M27.1338 19.2563H12.3469C12.0227 19.2563 11.7598 19.5192 11.7598 19.8435C11.7598 20.1678 12.0227 20.4306 12.3469 20.4306H27.1338C27.458 20.4306 27.7209 20.1678 27.7209 19.8435C27.7209 19.5192 27.458 19.2563 27.1338 19.2563Z" fill="white"/>
<path d="M21.9473 21.2133H12.3469C12.0227 21.2133 11.7598 21.4761 11.7598 21.8004C11.7598 22.1247 12.0227 22.3875 12.3469 22.3875H21.9473C22.2715 22.3875 22.5344 22.1247 22.5344 21.8004C22.5344 21.4761 22.2715 21.2133 21.9473 21.2133Z" fill="white"/>
<path d="M24.1391 23.1702H12.3469C12.0227 23.1702 11.7598 23.433 11.7598 23.7573C11.7598 24.0816 12.0227 24.3444 12.3469 24.3444H24.1391C24.4633 24.3444 24.7262 24.0816 24.7262 23.7573C24.7262 23.433 24.4633 23.1702 24.1391 23.1702Z" fill="white"/>
<path d="M27.1338 27.241H12.3469C12.0227 27.241 11.7598 27.5038 11.7598 27.8281C11.7598 28.1524 12.0227 28.4152 12.3469 28.4152H27.1338C27.458 28.4152 27.7209 28.1524 27.7209 27.8281C27.7209 27.5038 27.458 27.241 27.1338 27.241Z" fill="white"/>
<path d="M21.9473 29.1979H12.3469C12.0227 29.1979 11.7598 29.4607 11.7598 29.785C11.7598 30.1093 12.0227 30.3722 12.3469 30.3722H21.9473C22.2715 30.3722 22.5344 30.1093 22.5344 29.785C22.5344 29.4607 22.2715 29.1979 21.9473 29.1979Z" fill="white"/>
<path d="M24.1391 31.1549H12.3469C12.0227 31.1549 11.7598 31.4177 11.7598 31.742C11.7598 32.0663 12.0227 32.3291 12.3469 32.3291H24.1391C24.4633 32.3291 24.7262 32.0663 24.7262 31.742C24.7262 31.4177 24.4633 31.1549 24.1391 31.1549Z" fill="white"/>
<path d="M8.40559 27.241H5.27441C4.7348 27.241 4.2959 27.68 4.2959 28.2195V31.3506C4.2959 31.8902 4.73488 32.3292 5.27441 32.3292H8.40559C8.9452 32.3292 9.3841 31.8902 9.3841 31.3507V28.2195C9.3841 27.6799 8.94512 27.241 8.40559 27.241ZM8.20996 31.155H5.4702V28.4152H8.20996V31.155Z" fill="white"/>
</svg>
