<svg width="40" height="40" viewBox="0 0 40 40" fill="none" xmlns="http://www.w3.org/2000/svg">
<path d="M39.5085 12.4175L26.2861 3.85445C26.0221 3.68349 25.6706 3.7604 25.5008 4.02596C25.331 4.29159 25.4073 4.64546 25.6712 4.81641L38.7003 13.2542H35.663L20.8313 3.64905C20.3263 3.32208 19.6737 3.32216 19.1687 3.64905L4.33701 13.2542H1.29966L19.9993 1.1432L22.6477 2.85828C22.9116 3.02915 23.2631 2.9524 23.433 2.68677C23.6027 2.42113 23.5265 2.06727 23.2626 1.89631L20.6142 0.181239C20.2411 -0.0604128 19.759 -0.0604128 19.3859 0.181239L0.491459 12.4175C0.0891143 12.6781 -0.0905734 13.1636 0.0443486 13.6256C0.179271 14.0877 0.591381 14.3982 1.06982 14.3982H3.93576V16.3696V18.0962C3.93576 18.5514 4.25654 18.9326 4.68248 19.0228V20.0294C4.68248 20.5516 5.10451 20.9764 5.62326 20.9764H5.70139V27.9839C5.70139 28.2998 5.95576 28.5558 6.26959 28.5558C6.58342 28.5558 6.8378 28.2998 6.8378 27.9839V20.4045C6.8378 20.0886 6.58342 19.8325 6.26959 19.8325H5.81897V19.043H9.84342V19.8324H9.3928C9.07897 19.8324 8.82459 20.0884 8.82459 20.4043V33.0409C8.82459 33.3568 9.07897 33.6129 9.3928 33.6129H9.84342V34.4712H5.81897V33.6129H6.26959C6.58342 33.6129 6.8378 33.3568 6.8378 33.0409V31.5791C6.8378 31.2632 6.58342 31.0072 6.26959 31.0072C5.95576 31.0072 5.70139 31.2632 5.70139 31.5791V32.469H5.62326C5.10451 32.469 4.68248 32.8937 4.68248 33.4159V34.4225C4.25646 34.5127 3.93576 34.8939 3.93576 35.3492V36.5037H1.92294C1.29482 36.5037 0.783803 37.0181 0.783803 37.6503V38.8534C0.783803 39.4856 1.29482 40 1.92294 40H38.0771C38.7052 40 39.2162 39.4856 39.2162 38.8534V37.6503C39.2162 37.0181 38.7052 36.5037 38.0771 36.5037H36.0642V35.3492C36.0642 34.8939 35.7435 34.5127 35.3175 34.4225V33.4159C35.3175 32.8937 34.8955 32.469 34.3767 32.469H34.2986V20.9762H34.3767C34.8955 20.9762 35.3175 20.5514 35.3175 20.0293V19.0227C35.7435 18.9325 36.0642 18.5512 36.0642 18.096V16.3694V14.398H38.9302C39.4086 14.398 39.8207 14.0876 39.9557 13.6255C40.0906 13.1636 39.9109 12.678 39.5085 12.4175ZM19.7836 4.61102C19.9151 4.52585 20.0849 4.52593 20.2164 4.61102L33.5628 13.2543H6.43733L19.7836 4.61102ZM5.07217 14.3981H34.9278V15.7976H28.8417H23.3272H16.6728H11.1583H5.07217V14.3981ZM23.1488 34.4227V33.416C23.1488 32.8939 22.7267 32.4692 22.208 32.4692H22.1298V20.9764H22.208C22.7267 20.9764 23.1488 20.5516 23.1488 20.0294V19.0228C23.5748 18.9326 23.8955 18.5514 23.8955 18.0962V16.9415H28.2734V18.0962C28.2734 18.5514 28.5942 18.9326 29.0202 19.0228V20.0294C29.0202 20.5516 29.4422 20.9764 29.961 20.9764H30.0391V32.4692H29.961C29.4422 32.4692 29.0202 32.8939 29.0202 33.416V34.4227C28.5942 34.5129 28.2734 34.8941 28.2734 35.3493V36.5039H23.8955V35.3493C23.8955 34.8941 23.5747 34.5129 23.1488 34.4227ZM10.9798 34.4227V33.416C10.9798 32.8939 10.5578 32.4692 10.039 32.4692H9.96092V20.9764H10.039C10.5578 20.9764 10.9798 20.5516 10.9798 20.0294V19.0228C11.4058 18.9326 11.7266 18.5514 11.7266 18.0962V16.9415H16.1046V18.0962C16.1046 18.5514 16.4254 18.9326 16.8513 19.0228V20.0294C16.8513 20.5516 17.2734 20.9764 17.7921 20.9764H17.8702V32.4692H17.7921C17.2734 32.4692 16.8513 32.8939 16.8513 33.416V34.4227C16.4254 34.5129 16.1046 34.8941 16.1046 35.3493V36.5039H11.7266V35.3493C11.7266 34.8941 11.4058 34.5129 10.9798 34.4227ZM21.5616 33.6129H22.0123V34.4712H17.9878V33.6129H18.4384C18.7523 33.6129 19.0066 33.3568 19.0066 33.0409V20.4044C19.0066 20.0885 18.7523 19.8324 18.4384 19.8324H17.9878V19.043H22.0123V19.8324H21.5616C21.2478 19.8324 20.9934 20.0884 20.9934 20.4043V33.0409C20.9934 33.3568 21.2478 33.6129 21.5616 33.6129ZM17.4195 17.8992H17.417H17.241V16.9415H22.759V17.8992H22.5805C22.5801 17.8992 22.5796 17.8992 22.5792 17.8992C22.5788 17.8992 22.5784 17.8992 22.578 17.8992H17.4195ZM17.241 35.5869C17.2965 35.6051 17.3555 35.6152 17.417 35.6152H22.5779C22.6413 35.6152 22.702 35.6043 22.759 35.585V36.5038H17.241V35.5869ZM5.25076 17.8992H5.07225V16.9415H10.5902V17.8992H10.5901H10.4116H5.25076ZM5.07217 35.5859C5.12834 35.6047 5.18826 35.6152 5.25068 35.6152H10.4116C10.474 35.6152 10.534 35.6047 10.5901 35.5859V36.5038H5.07217V35.5859ZM38.0798 37.6504L38.0782 38.8561C38.0782 38.8561 38.0779 38.8562 38.0771 38.8562L1.92021 38.8535L1.92294 37.6477L38.0798 37.6504ZM34.7477 35.6151C34.8107 35.6151 34.8711 35.6044 34.9278 35.5853V36.5038H29.4099V35.5865C29.4656 35.6049 29.5249 35.6151 29.5868 35.6151H34.7477ZM30.6072 19.8325H30.1566V19.043H34.181V19.8324H33.7304C33.4166 19.8324 33.1622 20.0884 33.1622 20.4043V33.0409C33.1622 33.3568 33.4166 33.6129 33.7304 33.6129H34.181V34.4713H30.1566V33.6129H30.6072C30.921 33.6129 31.1754 33.3569 31.1754 33.041V20.4044C31.1754 20.0885 30.921 19.8325 30.6072 19.8325ZM34.9279 17.8992H34.7493C34.7491 17.8992 34.7488 17.8992 34.7485 17.8992C34.7483 17.8992 34.748 17.8992 34.7478 17.8992H29.5884H29.5869H29.4099V16.9415H34.9279V17.8992Z" fill="white"/>
</svg>
