<svg width="23" height="40" viewBox="0 0 23 40" fill="none" xmlns="http://www.w3.org/2000/svg">
<path d="M16.3692 4.10326C13.6843 1.38973 9.31556 1.38973 6.6306 4.10326C3.94572 6.81678 3.94572 11.2319 6.6306 13.9454C7.97312 15.3021 9.73648 15.9805 11.4999 15.9805C13.2633 15.9805 15.0267 15.3021 16.3692 13.9454C19.0541 11.2319 19.0541 6.81678 16.3692 4.10326ZM15.5721 13.1399C13.3266 15.4091 9.67301 15.4092 7.4276 13.1399C5.18218 10.8706 5.18218 7.17803 7.4276 4.90873C8.5505 3.77396 10.0249 3.20669 11.4998 3.20669C12.9744 3.20669 14.4495 3.77419 15.5721 4.90873C17.8176 7.17803 17.8176 10.8705 15.5721 13.1399Z" fill="white"/>
<path d="M14.2521 24.5974C14.446 24.6822 14.6433 24.7417 14.8174 24.7933C14.8726 24.8096 14.9268 24.8256 14.9789 24.842C15.0007 24.8488 15.0227 24.8543 15.045 24.8584C15.4618 24.9353 15.8669 24.9737 16.2596 24.9737C17.4178 24.9737 18.4681 24.6399 19.3934 23.9756C19.4693 23.9211 19.5434 23.8645 19.6162 23.8066C19.7218 23.763 19.8135 23.6876 19.8771 23.5871C20.5147 23.0187 21.0272 22.3239 21.439 21.5957C21.4961 21.5381 21.5425 21.4679 21.5716 21.3861C21.5797 21.3633 21.5859 21.3404 21.591 21.3173C22.4794 19.6268 22.8474 17.8239 22.9744 17.0359C23.0296 16.8564 22.9962 16.6533 22.8675 16.4991C22.7415 16.3485 22.5551 16.2804 22.3748 16.3004C21.1263 16.2817 17.225 16.4147 14.9775 18.6509C13.8944 19.7286 13.3493 21.1325 13.3575 22.8237C13.3577 22.8467 13.3591 22.8696 13.362 22.8923C13.3688 22.9472 13.375 23.004 13.3812 23.0618C13.404 23.2714 13.4304 23.5131 13.4962 23.7517L12.3825 24.7022L12.0635 24.9745V18.0284C13.9146 17.9093 15.6986 17.2086 17.139 16.0217C18.7026 14.7332 19.7986 12.9325 20.2251 10.9513C20.2913 10.6439 20.0984 10.3405 19.7943 10.2736C19.4903 10.207 19.19 10.4017 19.1238 10.7091C18.7513 12.4395 17.7935 14.0127 16.4268 15.1389C15.0412 16.2807 13.2915 16.9095 11.5 16.9095C7.19787 16.9095 3.69783 13.3722 3.69783 9.02431C3.69783 4.67642 7.19787 1.13906 11.5 1.13906C13.2915 1.13906 15.0412 1.76789 16.4268 2.90977C17.7935 4.03602 18.7513 5.60923 19.1238 7.33955C19.1899 7.64689 19.4896 7.84173 19.7943 7.77501C20.0984 7.70814 20.2913 7.40478 20.2251 7.09744C19.7986 5.11618 18.7026 3.3154 17.1391 2.02688C15.5528 0.719845 13.5501 0 11.4998 0C6.5762 0 2.57052 4.04829 2.57052 9.02431C2.57052 13.809 6.27433 17.7353 10.9364 18.0301H10.9363V24.9745L9.48302 23.7341C9.54068 23.511 9.56674 23.287 9.58869 23.0911C9.59518 23.0333 9.60152 22.9765 9.60856 22.9218C9.6115 22.8991 9.61304 22.8761 9.61327 22.8532C9.62765 21.1621 9.08777 19.7561 8.00862 18.6744C7.91709 18.5826 7.82186 18.4957 7.72507 18.4107C7.70505 18.3906 7.68325 18.3721 7.66029 18.3551C6.94061 17.7419 6.0912 17.308 5.22711 17.0037C5.20794 16.996 5.18823 16.9894 5.16797 16.9838C3.26756 16.3276 1.31458 16.284 0.55346 16.2969C0.548281 16.297 0.543256 16.2978 0.538154 16.298C0.526404 16.2985 0.514731 16.2992 0.502981 16.3005C0.495251 16.3014 0.487598 16.3025 0.479868 16.3036C0.46835 16.3053 0.456909 16.3075 0.445546 16.3099C0.438279 16.3114 0.431013 16.3131 0.423824 16.315C0.411919 16.318 0.400169 16.3215 0.388496 16.3253C0.382157 16.3275 0.375818 16.3295 0.36948 16.3318C0.356879 16.3364 0.344588 16.3417 0.332297 16.3472C0.327195 16.3496 0.322016 16.3517 0.316914 16.3542C0.303695 16.3607 0.290785 16.3679 0.277953 16.3755C0.274088 16.3778 0.270145 16.3798 0.266358 16.3822C0.252907 16.3907 0.239843 16.3999 0.22701 16.4096C0.22415 16.4118 0.221058 16.4136 0.218198 16.4159C0.205134 16.4261 0.192534 16.4372 0.180165 16.4488C0.177923 16.4509 0.175449 16.4528 0.173208 16.455C0.158984 16.4688 0.145224 16.4834 0.132237 16.4989C0.11925 16.5145 0.107345 16.5306 0.096291 16.547C0.0942039 16.5501 0.0925034 16.5534 0.0904936 16.5565C0.0816811 16.5702 0.0732551 16.584 0.0657567 16.5982C0.0637468 16.602 0.0621235 16.606 0.0602683 16.6098C0.053311 16.6236 0.0467402 16.6375 0.0410198 16.6518C0.0391646 16.6564 0.0376957 16.6611 0.0359177 16.6658C0.030893 16.6794 0.0261001 16.693 0.0221577 16.7068C0.020457 16.7126 0.0192202 16.7184 0.0177515 16.7243C0.0145048 16.7371 0.01149 16.75 0.0090936 16.763C0.00785676 16.7698 0.0069291 16.7767 0.00592416 16.7835C0.00414619 16.7957 0.00267738 16.8078 0.00174974 16.82C0.00113132 16.8275 0.000744937 16.8351 0.000435726 16.8428C-2.80912e-05 16.8545 -0.000105224 16.8662 0.000126684 16.8779C0.00028129 16.8857 0.000513321 16.8935 0.000977138 16.9014C0.00167286 16.9133 0.00298687 16.9253 0.00445562 16.9371C0.00507405 16.9422 0.00515113 16.9473 0.00592416 16.9523C0.121105 17.7156 0.492777 19.6661 1.45922 21.4554C1.46308 21.4629 1.46687 21.4704 1.47104 21.4777C1.91368 22.2925 2.48124 23.0712 3.20379 23.689C3.21917 23.7041 3.23587 23.7175 3.2528 23.7306C3.35685 23.8176 3.46283 23.9025 3.57337 23.9825C4.50247 24.6546 5.55897 24.9924 6.72617 24.9924C7.11168 24.9924 7.50955 24.9555 7.91864 24.8816C7.94098 24.8776 7.96301 24.8722 7.98466 24.8655C8.03691 24.8493 8.09118 24.8335 8.14645 24.8174C8.33383 24.7627 8.54796 24.6992 8.75606 24.6044L10.9365 26.4654V26.9294H1.93679C1.42443 26.9294 1.00754 27.3507 1.00754 27.8685V29.8572C1.00754 30.3751 1.42443 30.7963 1.93679 30.7963H3.49599L4.06602 33.4423C4.13219 33.7497 4.43205 33.9449 4.73655 33.8776C5.04066 33.8108 5.23353 33.5073 5.16728 33.2L4.6495 30.7963H18.3502L16.6129 38.8609H6.38681L5.9434 36.8023C5.87723 36.495 5.5776 36.3002 5.27287 36.3669C4.96877 36.4339 4.77597 36.7373 4.84214 37.0446L5.30356 39.1866C5.40498 39.658 5.82505 40 6.30239 40H16.6974C17.1747 40 17.5948 39.6579 17.6962 39.1866L19.5037 30.7962H21.0629C21.5753 30.7962 21.9922 30.375 21.9922 29.8572V27.8684C21.9921 27.3508 21.5752 26.9294 21.0629 26.9294H12.0634V26.4654L14.2521 24.5974ZM15.2794 23.7436C15.2729 23.7416 15.266 23.7396 15.2595 23.7376L16.376 22.7847L18.1163 23.4177C17.2811 23.8215 16.3303 23.9318 15.2794 23.7436ZM20.7445 20.4799L19.575 20.0546L21.5169 18.3972C21.3407 19.0268 21.0909 19.7597 20.7445 20.4799ZM20.8095 17.51L18.8478 19.1843L18.6231 17.9163C19.3941 17.6952 20.1609 17.5746 20.8095 17.51ZM20.1816 21.4859C19.9131 21.898 19.6057 22.2852 19.2534 22.6207L17.3707 21.9359L18.5803 20.9035L20.1816 21.4859ZM17.5459 18.2995L17.8531 20.0332L16.6434 21.0656L16.2812 19.0212C16.6689 18.7308 17.0987 18.4937 17.5459 18.2995ZM15.3098 20.0019L15.6488 21.9146L14.4972 22.8975C14.493 22.8597 14.489 22.8218 14.4846 22.7853C14.4849 21.6983 14.7625 20.7656 15.3098 20.0019ZM5.45059 18.3175C5.89771 18.5143 6.32713 18.7541 6.71388 19.0474L6.35627 21.0656L5.14656 20.0332L5.45059 18.3175ZM4.37438 17.9288L4.15191 19.1843L2.1939 17.5132C2.84193 17.5807 3.60638 17.7047 4.37438 17.9288ZM1.46672 18.3834L3.42472 20.0545L2.23727 20.4864C1.8901 19.7586 1.64111 19.0178 1.46672 18.3834ZM2.79663 21.4936L4.41937 20.9034L5.62901 21.9358L3.72017 22.6301C3.36929 22.2939 3.06348 21.9062 2.79663 21.4936ZM7.68797 23.7661C6.63619 23.9504 5.68552 23.8363 4.85173 23.4293L6.62366 22.7848L7.75143 23.7473C7.73033 23.7536 7.70869 23.7598 7.68797 23.7661ZM8.47862 22.877L7.35085 21.9145L7.68287 20.0411C8.21958 20.8037 8.48999 21.7317 8.48627 22.8107C8.48365 22.8323 8.48117 22.855 8.47862 22.877ZM20.8649 28.0686V29.6572H2.13469V28.0686H20.8649Z" fill="white"/>
<path d="M11.8537 8.51636V6.32463C12.6015 6.37862 12.8792 6.72409 13.1357 6.72409C13.4561 6.72409 13.6057 6.31385 13.6057 6.10869C13.6057 5.57971 12.5802 5.35291 11.8537 5.33135V5.03986C11.8537 4.91025 11.6935 4.7915 11.5332 4.7915C11.3516 4.7915 11.2234 4.91025 11.2234 5.03986V5.35299C10.2085 5.46096 9.19367 6.0008 9.19367 7.3612C9.19367 8.74323 10.2619 9.1319 11.2234 9.47737V12.0146C10.1338 11.9282 9.84526 11.1725 9.49276 11.1725C9.22568 11.1725 9.00134 11.5287 9.00134 11.7878C9.00134 12.3168 9.89875 13.0402 11.2234 13.0618H11.2233V13.3965C11.2233 13.5261 11.3516 13.6449 11.5332 13.6449C11.6934 13.6449 11.8537 13.5261 11.8537 13.3965V13.0294C13.0074 12.8675 13.798 12.1332 13.798 10.8053C13.798 9.3369 12.7831 8.86182 11.8537 8.51636ZM11.2875 8.31128C10.7213 8.09534 10.2619 7.86862 10.2619 7.25323C10.2619 6.69182 10.6893 6.4219 11.2875 6.34635V8.31128ZM11.7897 11.993V9.71487C12.3131 9.94159 12.7297 10.2439 12.7297 10.9241C12.7297 11.5396 12.3666 11.885 11.7897 11.993Z" fill="white"/>
</svg>
