<svg width="43" height="40" viewBox="0 0 43 40" fill="none" xmlns="http://www.w3.org/2000/svg">
<path d="M42.0809 33.8378C41.7354 33.8378 41.4554 34.1179 41.4554 34.4634V38.6434C41.4554 38.7015 41.4081 38.7488 41.35 38.7488H38.973V29.6088C38.973 29.2633 38.6929 28.9832 38.3474 28.9832C38.0018 28.9832 37.7218 29.2633 37.7218 29.6088V38.7488H33.1283L34.3716 37.3811C34.5636 37.1699 34.6541 36.8698 34.6138 36.5785C34.6129 36.5722 34.612 36.5661 34.6109 36.5598L33.2133 28.3024L33.4705 27.9153L33.5375 27.9629C33.7668 28.1258 34.0592 28.1852 34.3421 28.1145C34.62 28.045 34.8528 27.8581 34.9807 27.6019V27.6018L36.4028 24.7516L39.6513 26.0096C39.7795 26.0654 41.455 26.8337 41.455 28.8327V31.5439C41.4551 31.8894 41.7351 32.1695 42.0807 32.1695C42.4263 32.1695 42.7063 31.8894 42.7063 31.544V28.8328C42.7063 25.9459 40.2302 24.8948 40.1249 24.8515C40.1209 24.8498 40.1169 24.8482 40.1129 24.8467L34.5814 22.7044V21.565C35.4448 20.8704 36.0512 19.8692 36.2333 18.7279C36.664 18.6738 37.0635 18.5014 37.3951 18.2162C37.8705 17.8073 38.1434 17.2124 38.1434 16.584C38.1434 16.0825 37.9693 15.6025 37.6576 15.2213V13.5333C37.6576 10.2297 34.9699 7.54211 31.6665 7.54211C30.1834 7.54211 28.8254 8.08495 27.778 8.98095C27.7645 8.50158 27.5929 8.04483 27.2939 7.67915V5.99116C27.2939 2.68759 24.6062 0 21.3028 0C17.9993 0 15.3117 2.68767 15.3117 5.99116V7.72319C15.011 8.08253 14.8427 8.51576 14.8279 8.97561C14.1596 8.40449 13.3598 7.97451 12.4684 7.73979C12.1337 7.65171 11.792 7.85131 11.704 8.18546C11.616 8.5196 11.8155 8.86184 12.1496 8.94983C14.2277 9.49701 15.679 11.3818 15.679 13.5332V14.4688C15.652 14.4632 15.5652 14.4483 15.5619 14.4478C15.5534 14.2712 15.5087 14.1634 15.4124 14.0249C15.2523 13.7948 14.9647 13.5081 14.0397 12.5138C13.71 12.1597 13.1769 12.0948 12.7721 12.3593C11.1878 13.3943 9.26288 13.9218 7.47655 13.8169C6.89467 13.7828 6.53125 14.0385 6.37635 14.4575C6.36251 14.4597 6.20778 14.4909 6.19919 14.493V13.5332C6.19919 11.4588 7.58531 9.59268 9.56991 8.99488C9.90072 8.89528 10.0881 8.54629 9.98855 8.2154C9.88888 7.88451 9.53938 7.69708 9.20899 7.79684C8.00204 8.16035 6.91711 8.91722 6.15431 9.92783C5.365 10.9733 4.94786 12.22 4.94786 13.5333V15.2654C4.63273 15.6419 4.46232 16.0995 4.46232 16.584C4.46232 17.655 5.25139 18.5891 6.3756 18.7284C6.55977 19.843 7.16451 20.9119 8.11889 21.6387V22.7047L2.5935 24.8469C2.58958 24.8484 2.58566 24.85 2.58174 24.8516C2.47614 24.8948 0 25.9458 0 28.8327V38.6434C0 39.3915 0.608567 40 1.35668 40H20.6222C20.8915 40 21.1419 39.9202 21.3533 39.7844C21.5645 39.9202 21.8151 40 22.0844 40H41.35C42.098 40 42.7066 39.3915 42.7066 38.6434V34.4634C42.7065 34.1179 42.4265 33.8378 42.0809 33.8378ZM6.31438 17.4357C5.94762 17.3026 5.71332 16.9634 5.71332 16.5839C5.71332 16.2158 5.98024 15.9133 6.31438 15.7698V17.4357ZM35.2311 24.2977L34.0031 26.7588C34.0029 26.7587 32.6391 25.79 32.6197 25.7763C33.2081 25.0499 32.9317 25.3911 34.1551 23.8811L35.2311 24.2977ZM31.7154 24.9048L30.0974 22.9077V22.3075C30.6234 22.4894 31.1899 22.5733 31.7231 22.5734C31.7232 22.5734 31.7234 22.5734 31.7235 22.5734H31.7235C32.2749 22.5734 32.8331 22.4687 33.3302 22.2816V22.9115L31.7154 24.9048ZM32.4499 27.1905L32.2198 27.5369H31.2112L30.9811 27.1905L31.7155 26.6689L32.4499 27.1905ZM21.3516 17.3626L19.7337 15.3655V14.7653C20.2575 14.9464 20.8235 15.0311 21.3594 15.0312C21.3595 15.0312 21.3596 15.0312 21.3597 15.0312H21.3598C21.9102 15.0312 22.4683 14.9269 22.9665 14.7395V15.3693L21.3516 17.3626ZM22.0861 19.6485L21.8559 19.9949H20.8474L20.6173 19.6485L21.3517 19.1269L22.0861 19.6485ZM16.4251 11.1262C16.5274 11.1541 16.6325 11.173 16.7392 11.1862C16.9233 12.3008 17.5281 13.3697 18.4825 14.0965V15.1625L17.2062 15.6572C17.1322 15.5019 17.0397 15.3555 16.9299 15.2213V13.5333C16.9299 12.6843 16.7511 11.8682 16.4251 11.1262ZM24.676 10.4637C24.676 12.2949 23.1823 13.7798 21.3598 13.7798C19.3036 13.7798 17.9295 12.1863 17.9295 10.4637V7.53335C19.905 7.61242 21.9571 7.02696 23.6349 5.98265C24.199 6.58755 24.5347 6.93896 24.6761 7.10211C24.676 8.65965 24.676 9.26104 24.676 10.4637ZM25.8697 11.1858C25.9758 11.1724 26.0804 11.1534 26.182 11.1256C25.8571 11.863 25.6752 12.6771 25.6752 13.5333V15.2653C25.5791 15.3802 25.4963 15.5025 25.4278 15.6309L24.2177 15.1623V14.0229C25.0811 13.3282 25.6876 12.327 25.8697 11.1858ZM18.9097 16.3399L20.4455 18.2355L19.3981 18.9793C19.3976 18.9798 19.3971 18.9802 19.3966 18.9806L19.0642 19.2167L17.8361 16.7557L18.9097 16.3399ZM22.7915 17.573L23.7913 16.3389L24.8672 16.7555L23.6393 19.2167L23.3062 18.9802C23.3059 18.9799 23.3055 18.9796 23.3052 18.9793L22.256 18.2341L22.7915 17.573ZM23.1068 20.3732L23.1737 20.4208C23.4076 20.5869 23.7012 20.6418 23.9784 20.5724C24.2563 20.5029 24.4891 20.316 24.617 20.0598V20.0597L25.6728 17.9436C26.0356 18.3907 26.5602 18.6626 27.1006 18.7301C27.2914 19.9262 27.9379 20.947 28.8463 21.6387V22.7046L23.5277 24.7666L22.8495 20.7604L23.1068 20.3732ZM29.2734 23.882L30.8092 25.7776C30.1377 26.2546 29.4627 26.7341 29.4279 26.7588L28.1998 24.2978L29.2734 23.882ZM35.0396 18.0059C35.0398 19.7923 33.589 21.322 31.7235 21.322C29.5972 21.322 28.2933 19.6566 28.2933 18.0059V15.0755C30.2546 15.1539 32.3094 14.5762 33.9986 13.5248C34.5627 14.1297 34.8983 14.4812 35.0397 14.6443C35.0396 16.2018 35.0396 16.8032 35.0396 18.0059ZM36.8922 16.5839C36.8922 16.9641 36.6571 17.3027 36.2911 17.4357V15.7339C36.6695 15.8717 36.8922 16.2174 36.8922 16.5839ZM26.9265 13.5332C26.9265 10.9196 29.0529 8.79327 31.6664 8.79327C34.28 8.79327 36.4062 10.9197 36.4062 13.5332V14.4688C36.3778 14.4629 36.2996 14.4494 36.2891 14.4478C36.2806 14.271 36.2357 14.1629 36.1397 14.0249C35.9753 13.7888 35.6908 13.507 34.7669 12.5138C34.4442 12.1675 33.9122 12.0895 33.4994 12.3593C31.9579 13.3663 30.0104 13.9351 28.1573 13.8147C27.6367 13.7806 27.2596 14.0355 27.1036 14.4575C27.0896 14.4598 26.9352 14.491 26.9264 14.4931V13.5332H26.9265ZM27.042 15.7699V17.4349C26.6742 17.3023 26.441 16.9621 26.441 16.5839C26.4409 16.2158 26.7076 15.9135 27.042 15.7699ZM26.5283 9.04184C26.5283 9.30525 26.4143 9.5544 26.2155 9.72531C26.1302 9.79871 26.0329 9.85509 25.9272 9.89355V8.19171C26.3013 8.32751 26.5283 8.67141 26.5283 9.04184ZM21.3026 1.25117C23.9162 1.25117 26.0425 3.37748 26.0425 5.99108V6.9267C26.0142 6.92086 25.9358 6.90727 25.9254 6.90568C25.9161 6.71409 25.8609 6.59631 25.7482 6.44392C25.5807 6.21721 25.272 5.9055 24.4031 4.97163C24.0751 4.61939 23.5423 4.5514 23.1356 4.81715C21.5078 5.88064 19.533 6.39821 17.7431 6.27001C17.3052 6.23689 16.8929 6.50147 16.7399 6.91527C16.726 6.91752 16.5714 6.94872 16.5628 6.95081V5.99116H16.5627C16.5627 3.37748 18.6891 1.25117 21.3026 1.25117ZM16.6781 8.22766V9.89363C16.3114 9.76051 16.0771 9.42127 16.0771 9.04175C16.0771 8.67575 16.3419 8.37221 16.6781 8.22766ZM15.5634 15.7339C15.9134 15.8613 16.1382 16.1666 16.1605 16.5296C16.1885 16.9331 15.9405 17.298 15.5634 17.435V15.7339ZM15.5054 18.7299C16.0955 18.6561 16.6371 18.3452 16.9922 17.8668L18.0864 20.0597C18.0864 20.0597 18.0864 20.0597 18.0865 20.0598C18.2144 20.3161 18.4472 20.5029 18.725 20.5724C18.9997 20.6411 19.2936 20.5885 19.5297 20.4208L19.5967 20.3732L19.8538 20.7603L19.1759 24.7655L13.854 22.7043V21.5654H13.8539C14.74 20.851 15.3276 19.8416 15.5054 18.7299ZM10.9877 24.9048L9.36981 22.9077V22.3075C9.89363 22.4886 10.4597 22.5733 10.9956 22.5734C10.9957 22.5734 10.9958 22.5734 10.9959 22.5734C11.5553 22.5734 12.1124 22.4659 12.6026 22.2816V22.9115L10.9877 24.9048ZM11.7222 27.1905L11.4921 27.5369H10.4836L10.2535 27.1905L10.9879 26.6689L11.7222 27.1905ZM13.4274 23.8811L14.5034 24.2978L13.2754 26.7588L12.9423 26.5223C12.942 26.522 12.9416 26.5217 12.9413 26.5214L11.8921 25.7763L13.4274 23.8811ZM7.56563 18.0059V15.0755C9.55156 15.1549 11.6051 14.5616 13.2709 13.5248C13.8297 14.1241 14.1705 14.481 14.3121 14.6443C14.3121 16.2018 14.3121 16.8033 14.3121 18.0059C14.3121 19.8254 12.8286 21.322 10.9959 21.322C8.95542 21.322 7.56563 19.7466 7.56563 18.0059ZM8.54587 23.882L10.0816 25.7776L9.03433 26.5214C9.03375 26.5219 9.03333 26.5223 9.03274 26.5227L8.70035 26.7588L7.47229 24.2978L8.54587 23.882ZM4.98489 38.7489V29.6088C4.98489 29.2633 4.70488 28.9832 4.35931 28.9832C4.01374 28.9832 3.73373 29.2633 3.73373 29.6088V38.7488H1.35668C1.29846 38.7488 1.25125 38.7015 1.25125 38.6435V28.8327C1.25125 26.8234 2.94424 26.0575 3.05384 26.0101L6.30028 24.7516L7.72252 27.6018C7.72252 27.6018 7.72252 27.6018 7.72261 27.6019C7.85048 27.8582 8.08328 28.045 8.3612 28.1145C8.63587 28.1832 8.92973 28.1306 9.16587 27.9629L9.23285 27.9153L9.49 28.3024L8.09245 36.5598C8.09137 36.566 8.09045 36.5722 8.08953 36.5785C8.04933 36.8697 8.13983 37.1697 8.33193 37.3813L9.575 38.7488H4.98489V38.7489ZM9.34812 36.6389L10.6768 28.7881H11.2989L12.6277 36.6389L10.9879 38.4428L9.34812 36.6389ZM20.7276 38.6434C20.7276 38.7015 20.6803 38.7488 20.6222 38.7488H18.2453V29.6088C18.2453 29.2633 17.9653 28.9832 17.6197 28.9832C17.2742 28.9832 16.9942 29.2633 16.9942 29.6088V38.7488H12.4007L13.644 37.3811C13.836 37.1699 13.9265 36.8698 13.8862 36.5785C13.8853 36.5722 13.8843 36.5661 13.8833 36.5598L12.4857 28.3024L12.7429 27.9153L12.8098 27.9629C12.9773 28.0818 13.1754 28.1439 13.3765 28.1439C13.7435 28.1439 14.0852 27.9383 14.2532 27.6019V27.6018L15.6753 24.7516L18.9237 26.0097C19.8706 26.4216 20.7275 27.4838 20.7275 28.8327V38.6434H20.7276ZM21.3532 26.5594C21.0941 26.1418 20.7491 25.7555 20.3332 25.4258L21.0406 21.2461H21.6628L22.3705 25.4279C21.9435 25.767 21.603 26.1569 21.3532 26.5594ZM25.7124 38.7489V29.6088C25.7124 29.2633 25.4324 28.9832 25.0869 28.9832C24.7413 28.9832 24.4613 29.2633 24.4613 29.6088V38.7488H22.0843C22.0262 38.7488 21.9789 38.7015 21.9789 38.6435V28.8327C21.9789 28.089 22.2121 27.404 22.7089 26.8286C23.0401 26.4486 23.4794 26.141 23.7816 26.0101L27.028 24.7515L28.4502 27.6018C28.4502 27.6018 28.4502 27.6018 28.4503 27.6019C28.5782 27.8582 28.811 28.045 29.0888 28.1145C29.3635 28.1832 29.6574 28.1306 29.8935 27.9629L29.9605 27.9153L30.2176 28.3024L28.8201 36.5598C28.819 36.566 28.8181 36.5722 28.8172 36.5785C28.777 36.8697 28.8675 37.1697 29.0596 37.3813L30.3026 38.7488H25.7124V38.7489ZM30.0757 36.639L31.4044 28.7882H32.0266L33.3553 36.639L31.7155 38.4429L30.0757 36.639Z" fill="white"/>
</svg>
