<svg width="34" height="40" viewBox="0 0 34 40" fill="none" xmlns="http://www.w3.org/2000/svg">
<path d="M33.0048 8.74744C32.6768 8.74744 32.4107 9.01345 32.4107 9.3415V38.8119H14.554C14.226 38.8119 13.96 39.0779 13.96 39.406C13.96 39.734 14.226 40 14.554 40H33.0048C33.3328 40 33.5989 39.734 33.5989 39.406V9.3415C33.5989 9.0133 33.3328 8.74744 33.0048 8.74744Z" fill="white"/>
<path d="M33.0051 0H6.58234C6.2543 0 5.98828 0.266016 5.98828 0.594063V21.6178C5.98828 21.9459 6.2543 22.2119 6.58234 22.2119C6.91039 22.2119 7.17641 21.9459 7.17641 21.6178V1.18813H32.411V7.36109C32.411 7.68914 32.677 7.95516 33.0051 7.95516C33.3331 7.95516 33.5991 7.68914 33.5991 7.36109V0.594063C33.5991 0.266016 33.3331 0 33.0051 0Z" fill="white"/>
<path d="M29.7732 4.15338H9.81379C9.48574 4.15338 9.21973 4.4194 9.21973 4.74744V9.49971C9.21973 9.82776 9.48574 10.0938 9.81379 10.0938H29.7732C30.1012 10.0938 30.3672 9.82776 30.3672 9.49971V4.74744C30.3672 4.41932 30.1013 4.15338 29.7732 4.15338ZM15.8729 8.90557H10.4079V5.34151H15.8729V8.90557ZM22.5261 8.90557H17.0611V5.34151H22.5261V8.90557ZM29.1792 8.90557H23.7142V5.34151H29.1792V8.90557Z" fill="white"/>
<path d="M29.7732 12.7073H9.81379C9.48574 12.7073 9.21973 12.9734 9.21973 13.3014V18.0537C9.21973 18.3817 9.48574 18.6477 9.81379 18.6477H11.5046C11.8327 18.6477 12.0987 18.3817 12.0987 18.0537C12.0987 17.7256 11.8327 17.4596 11.5046 17.4596H10.4079V13.8955H15.8729V17.4596H13.485C13.1569 17.4596 12.8909 17.7256 12.8909 18.0537C12.8909 18.3817 13.1569 18.6477 13.485 18.6477H29.7732C30.1012 18.6477 30.3672 18.3817 30.3672 18.0537V13.3014C30.3673 12.9733 30.1014 12.7073 29.7732 12.7073ZM22.5261 17.4595H17.0611V13.8954H22.5261V17.4595ZM29.1792 17.4595H23.7142V13.8954H29.1792V17.4595Z" fill="white"/>
<path d="M29.7732 21.2614H9.81379C9.48574 21.2614 9.21973 21.5274 9.21973 21.8555C9.21973 22.1835 9.48574 22.4495 9.81379 22.4495H15.8729V26.6077C15.8729 26.9358 16.1389 27.2018 16.4669 27.2018H29.7732C30.1012 27.2018 30.3672 26.9358 30.3672 26.6077V21.8555C30.3672 21.5274 30.1013 21.2614 29.7732 21.2614ZM22.5261 26.0136H17.0611V22.4495H22.5261V26.0136ZM29.1792 26.0136H23.7142V22.4495H29.1792V26.0136Z" fill="white"/>
<path d="M29.7729 29.8155H17.8712C17.5432 29.8155 17.2771 30.0815 17.2771 30.4096C17.2771 30.7376 17.5432 31.0036 17.8712 31.0036H22.5257V34.5678H17.2376C16.9096 34.5678 16.6436 34.8338 16.6436 35.1618C16.6436 35.4899 16.9096 35.7559 17.2376 35.7559H29.773C30.1011 35.7559 30.3671 35.4899 30.3671 35.1618V30.4096C30.3669 30.0814 30.101 29.8155 29.7729 29.8155ZM29.1788 34.5676H23.7138V31.0035H29.1788V34.5676Z" fill="white"/>
<path d="M8.96039 31.0085V27.9437C9.27617 28.0222 9.56367 28.1638 9.79992 28.3606C10.1466 28.6496 10.3375 29.0242 10.3375 29.4159C10.3375 29.7439 10.6035 30.0099 10.9316 30.0099C11.2596 30.0099 11.5256 29.7439 11.5256 29.4159C11.5256 28.0852 10.4193 26.9744 8.96039 26.7333V26.4232C8.96039 26.0952 8.69438 25.8292 8.36633 25.8292C8.03828 25.8292 7.77227 26.0952 7.77227 26.4232V26.7333C6.31336 26.9744 5.20703 28.0853 5.20703 29.4159C5.20703 30.7465 6.31336 31.8574 7.77227 32.0985V35.1633C7.45648 35.0848 7.16898 34.9431 6.93273 34.7463C6.58602 34.4574 6.39516 34.0828 6.39516 33.6911C6.39516 33.3631 6.12914 33.0971 5.80109 33.0971C5.47305 33.0971 5.20703 33.3631 5.20703 33.6911C5.20703 35.0218 6.31336 36.1327 7.77227 36.3737V36.6838C7.77227 37.0118 8.03828 37.2778 8.36633 37.2778C8.69438 37.2778 8.96039 37.0118 8.96039 36.6838V36.3737C10.4193 36.1327 11.5256 35.0217 11.5256 33.6911C11.5256 32.3605 10.4193 31.2496 8.96039 31.0085ZM7.77227 30.888C7.45648 30.8095 7.16898 30.6678 6.93273 30.471C6.58602 30.1821 6.39516 29.8074 6.39516 29.4158C6.39516 29.0242 6.58602 28.6495 6.93273 28.3606C7.16891 28.1638 7.45648 28.0221 7.77227 27.9436V30.888ZM9.79992 34.7465C9.56375 34.9433 9.27617 35.0849 8.96039 35.1635V32.2192C9.27617 32.2977 9.56367 32.4392 9.79992 32.6361C10.1466 32.925 10.3375 33.2997 10.3375 33.6913C10.3375 34.0828 10.1466 34.4576 9.79992 34.7465Z" fill="white"/>
<path d="M8.36641 23.1872C3.7532 23.1872 0 26.9403 0 31.5535C0 36.1667 3.75313 39.9199 8.36633 39.9199C12.9795 39.9199 16.7327 36.1667 16.7327 31.5535C16.7327 26.9403 12.9797 23.1872 8.36641 23.1872ZM8.36641 38.7318C4.40828 38.7318 1.1882 35.5116 1.1882 31.5536C1.1882 27.5955 4.40836 24.3754 8.36641 24.3754C12.3245 24.3754 15.5446 27.5956 15.5446 31.5536C15.5446 35.5117 12.3245 38.7318 8.36641 38.7318Z" fill="white"/>
</svg>
