<svg width="52" height="40" viewBox="0 0 52 40" fill="none" xmlns="http://www.w3.org/2000/svg">
<path d="M50.4785 38.4992H49.6248V21.6041C49.6248 21.1897 49.2888 20.8537 48.8744 20.8537C48.46 20.8537 48.124 21.1897 48.124 21.6041V35.2909H44.8124V29.6248C44.8124 29.2104 44.4764 28.8744 44.062 28.8744H40.0516C39.6372 28.8744 39.3012 29.2104 39.3012 29.6248V35.2909H35.9896V20.7504H36.8433C37.2578 20.7504 37.5937 20.4144 37.5937 20V17.5422H48.1239V18.3959C48.1239 18.8103 48.4599 19.1463 48.8743 19.1463C49.2887 19.1463 49.6247 18.8103 49.6247 18.3959V17.5422H50.4784C50.8929 17.5422 51.2288 17.2062 51.2288 16.7918C51.2288 16.3774 50.8929 16.0414 50.4784 16.0414H39.454L26.3649 8.34191V6.31327H31.2289C31.6434 6.31327 31.9794 5.97728 31.9794 5.56284V1.55248C31.9794 1.13804 31.6434 0.802053 31.2289 0.802053H26.3649V0.750424C26.3649 0.33599 26.0289 0 25.6145 0C25.2 0 24.864 0.33599 24.864 0.750424V8.34191L11.775 16.0414H0.750424C0.33599 16.0414 0 16.3774 0 16.7918C0 17.2062 0.33599 17.5422 0.750424 17.5422H1.60411V31.2288C1.60411 31.6433 1.9401 31.9793 2.35453 31.9793C2.76896 31.9793 3.10495 31.6433 3.10495 31.2288V17.5422H13.6351V20C13.6351 20.4144 13.9711 20.7504 14.3855 20.7504H15.2392V35.2909H11.9276V29.6248C11.9276 29.2104 11.5917 28.8744 11.1772 28.8744H7.16695C6.75252 28.8744 6.41653 29.2104 6.41653 29.6248V35.2909H3.10495V34.437C3.10495 34.0225 2.76896 33.6865 2.35453 33.6865C1.9401 33.6865 1.60411 34.0225 1.60411 34.437V38.4992H0.750424C0.33599 38.4992 0 38.8351 0 39.2496C0 39.664 0.33599 40 0.750424 40H50.4785C50.893 40 51.2289 39.664 51.2289 39.2496C51.2289 38.8351 50.893 38.4992 50.4785 38.4992ZM26.3649 2.3029H30.4785V4.81242H26.3649V2.3029ZM40.8022 30.3752H43.3117V35.2908H40.8022V30.3752ZM25.6145 9.64175L36.4938 16.0414H14.7351L25.6145 9.64175ZM15.136 19.2496V17.5422H36.0929V19.2496H15.136ZM34.4888 20.7504V35.2909H32.7814V20.7504H34.4888ZM31.2806 30.3753V35.2909H27.969V30.3753H31.2806ZM27.969 28.8743V26.3648H31.2806V28.8743H27.969ZM27.969 24.864V20.7504H31.2806V24.864H27.969ZM26.4682 20.7504V35.2909H24.7608V20.7504H26.4682ZM19.9484 28.8744V26.3649H23.2599V28.8744H19.9484ZM23.2599 30.3752V35.2908H19.9484V30.3752H23.2599ZM19.9484 24.864V20.7504H23.2599V24.864H19.9484ZM18.4475 20.7504V35.2909H16.7402V20.7504H18.4475ZM7.91737 30.3752H10.4269V35.2908H7.91737V30.3752ZM13.635 38.4992H3.10495V36.7918H13.635V38.4992ZM36.0929 38.4992H15.1359V36.7918H36.0929V38.4992ZM48.124 38.4992H37.5937V36.7918H48.124V38.4992Z" fill="white"/>
<path d="M9.17265 20.0516C7.65319 20.0516 6.41699 21.2877 6.41699 22.8073V25.6145C6.41699 26.0289 6.75298 26.3649 7.16742 26.3649H11.1778C11.5922 26.3649 11.9282 26.0289 11.9282 25.6145V22.8073C11.9282 21.2878 10.6921 20.0516 9.17265 20.0516ZM10.4274 24.8641H7.91784V22.8073C7.91784 22.1154 8.48066 21.5525 9.17265 21.5525C9.86454 21.5525 10.4274 22.1153 10.4274 22.8073V24.8641Z" fill="white"/>
<path d="M42.0573 20.0516C40.5379 20.0516 39.3018 21.2878 39.3018 22.8073V25.6145C39.3018 26.0289 39.6377 26.3649 40.0522 26.3649H44.0626C44.477 26.3649 44.813 26.0289 44.813 25.6145V22.8073C44.813 21.2878 43.5769 20.0516 42.0573 20.0516ZM43.312 24.8641H40.8025V22.8073C40.8025 22.1154 41.3653 21.5525 42.0572 21.5525C42.7492 21.5525 43.312 22.1154 43.312 22.8073V24.8641Z" fill="white"/>
</svg>
