<svg xmlns="http://www.w3.org/2000/svg" width="91" height="91" viewBox="0 0 91 91">
    <g fill="#2B333B" fill-rule="nonzero">
        <path d="M88.655 28.638c-3.118-3.119-8.193-3.119-11.312 0l-8.022 8.028V15.54a7.945 7.945 0 0 0-2.343-5.656l-7.54-7.54A7.946 7.946 0 0 0 53.782 0H7.999C3.589 0 0 3.588 0 7.998v75.004C0 87.412 3.588 91 7.999 91h53.324c4.41 0 7.998-3.588 7.998-7.998V59.298l19.334-19.35a7.993 7.993 0 0 0 0-11.31zM53.325 5.332c.503 0 1.474-.087 2.342.78l7.541 7.542c.846.846.781 1.773.781 2.342H53.324V5.332zm10.664 77.67a2.669 2.669 0 0 1-2.666 2.666H7.999a2.67 2.67 0 0 1-2.667-2.666V7.998A2.67 2.67 0 0 1 8 5.332h39.993v13.33a2.666 2.666 0 0 0 2.666 2.666h13.33v20.675l-7.865 7.872-3.77 3.769c-.292.292-.513.65-.643 1.042l-3.771 11.31a2.666 2.666 0 0 0 3.372 3.373l11.312-3.77c.393-.13.75-.351 1.042-.644l.324-.324v18.371zm-5.98-27.473l3.771 3.77-1.44 1.44-5.656 1.886 1.885-5.656 1.44-1.44zm7.54 0l-3.77-3.771L74.596 38.93l3.77 3.77L65.55 55.529zm19.335-19.35l-2.749 2.75-3.77-3.77 2.75-2.75a2.67 2.67 0 0 1 3.77 0 2.664 2.664 0 0 1-.001 3.77z"/>
        <path d="M51.532 26.657H13.73c-1.49 0-2.7 1.234-2.7 2.757 0 1.523 1.21 2.758 2.7 2.758h37.802c1.491 0 2.7-1.235 2.7-2.758s-1.209-2.757-2.7-2.757zM39.678 36.768H13.635c-1.439 0-2.605 1.234-2.605 2.757 0 1.523 1.166 2.758 2.605 2.758h26.043c1.439 0 2.605-1.235 2.605-2.758s-1.166-2.757-2.605-2.757zM39.678 47.798H13.635c-1.439 0-2.605 1.235-2.605 2.758 0 1.522 1.166 2.757 2.605 2.757h26.043c1.439 0 2.605-1.235 2.605-2.757 0-1.523-1.166-2.758-2.605-2.758zM39.678 57.91H13.635c-1.439 0-2.605 1.234-2.605 2.757 0 1.523 1.166 2.757 2.605 2.757h26.043c1.439 0 2.605-1.234 2.605-2.757 0-1.523-1.166-2.758-2.605-2.758zM49.751 74.455H33.895c-1.46 0-2.642 1.234-2.642 2.757 0 1.523 1.183 2.758 2.642 2.758h15.856c1.46 0 2.643-1.235 2.643-2.758s-1.183-2.757-2.643-2.757z"/>
    </g>
</svg>
