<svg xmlns="http://www.w3.org/2000/svg" width="124" height="91" viewBox="0 0 124 91">
    <g fill="#2B333B" fill-rule="nonzero">
        <path d="M14.386 33.09H7.658c-1.186 0-2.147.824-2.147 1.84 0 1.015.961 1.838 2.147 1.838h6.728c1.186 0 2.147-.823 2.147-1.839 0-1.015-.96-1.838-2.147-1.838zM24.726 56.07h-13.63c-1.056 0-1.91.824-1.91 1.84 0 1.014.854 1.837 1.91 1.837h13.63c1.056 0 1.911-.823 1.911-1.838 0-1.015-.855-1.838-1.911-1.838zM18.277 44.121H1.93C.864 44.121 0 44.944 0 45.96c0 1.015.864 1.838 1.93 1.838h16.347c1.066 0 1.93-.823 1.93-1.838 0-1.016-.864-1.839-1.93-1.839zM19.172 71.697h-1.603c-1.08 0-1.954.823-1.954 1.838 0 1.016.875 1.839 1.954 1.839h1.603c1.08 0 1.954-.823 1.954-1.839 0-1.015-.875-1.838-1.954-1.838zM10.822 71.697H2.037C.912 71.697 0 72.52 0 73.535c0 1.016.912 1.839 2.037 1.839h8.785c1.125 0 2.037-.823 2.037-1.839 0-1.015-.912-1.838-2.037-1.838zM103.71 21.28H86.99v-3.635c0-1.115-.882-2.019-1.972-2.019H59.925c-1.09 0-1.973.904-1.973 2.02 0 1.114.883 2.018 1.973 2.018h23.12v42.532c0 1.115.884 2.019 1.973 2.019 1.09 0 1.973-.904 1.973-2.02V25.318h16.72c9.012 0 16.344 7.504 16.344 16.728v34.15h-5.015c-.948-6.095-6.118-10.768-12.335-10.768-6.217 0-11.387 4.673-12.336 10.768h-3.378v-7.27c0-1.114-.883-2.018-1.973-2.018s-1.972.904-1.972 2.019v7.269H62.11c-.949-6.095-6.118-10.768-12.335-10.768-6.218 0-11.387 4.673-12.336 10.768h-4.102V46.75c0-1.115-.883-2.019-1.973-2.019s-1.972.904-1.972 2.02v31.462c0 1.115.882 2.02 1.972 2.02h6.075C38.389 86.326 43.558 91 49.776 91c6.217 0 11.386-4.673 12.335-10.768h28.258C91.318 86.327 96.487 91 102.705 91c6.217 0 11.386-4.673 12.335-10.768h6.987c1.09 0 1.973-.904 1.973-2.019V42.045c.001-11.45-9.102-20.766-20.29-20.766zM49.776 86.961c-4.714 0-8.548-3.924-8.548-8.749 0-4.824 3.834-8.748 8.548-8.748 4.713 0 8.547 3.924 8.547 8.748 0 4.825-3.834 8.75-8.547 8.75zm52.93 0c-4.713 0-8.546-3.922-8.548-8.745v-.004-.003c.002-4.823 3.835-8.745 8.547-8.745 4.713 0 8.548 3.924 8.548 8.748 0 4.825-3.835 8.75-8.548 8.75z"/>
        <path d="M114.814 42.084c0-6.986-5.277-12.67-11.763-12.67H92.804c-1.033 0-1.87.903-1.87 2.016v18.948c0 1.113.837 2.016 1.87 2.016h20.14c1.033 0 1.87-.903 1.87-2.016v-8.294zm-20.139 6.279V33.446h8.376c4.423 0 8.02 3.875 8.02 8.638v6.279H94.676zM49.6 73.535a5.52 5.52 0 0 0-5.511 5.516 5.52 5.52 0 0 0 5.511 5.515 5.52 5.52 0 0 0 5.511-5.515 5.52 5.52 0 0 0-5.511-5.516zm0 6.752a1.238 1.238 0 0 1 0-2.474 1.238 1.238 0 0 1 0 2.474zM103.793 73.535a5.52 5.52 0 0 0-5.512 5.516 5.52 5.52 0 0 0 5.512 5.515 5.52 5.52 0 0 0 5.51-5.515 5.52 5.52 0 0 0-5.51-5.516zm0 6.752a1.238 1.238 0 0 1 0-2.474 1.238 1.238 0 0 1 0 2.474zM112.978 57.91c-1.015 0-1.837.907-1.837 2.027v5.136c0 1.12.822 2.028 1.837 2.028 1.015 0 1.837-.908 1.837-2.028v-5.136c0-1.12-.823-2.028-1.837-2.028zM33.985 0C31.31 0 28.7.495 26.23 1.47a1.986 1.986 0 0 0 1.457 3.695 17.063 17.063 0 0 1 6.298-1.193c9.46 0 17.157 7.702 17.157 17.17 0 9.467-7.696 17.169-17.157 17.169-9.46 0-17.157-7.702-17.157-17.17 0-4.816 2.04-9.44 5.598-12.688.81-.739.867-1.995.128-2.805a1.984 1.984 0 0 0-2.803-.129 21.201 21.201 0 0 0-6.892 15.622c0 11.658 9.478 21.142 21.126 21.142 11.65 0 21.126-9.484 21.126-21.141C55.111 9.484 45.634 0 33.985 0z"/>
        <path d="M38.36 20.688h-3.02v-9.431a2.06 2.06 0 0 0-2.055-2.065 2.06 2.06 0 0 0-2.055 2.065v11.496c0 1.14.92 2.065 2.055 2.065h5.075a2.06 2.06 0 0 0 2.055-2.065 2.06 2.06 0 0 0-2.055-2.065z"/>
    </g>
</svg>
