<svg xmlns="http://www.w3.org/2000/svg" width="119" height="82" viewBox="0 0 119 82">
    <g fill="#2B333B" fill-rule="nonzero">
        <path d="M21.539 68.398H46.54c.942 2.027 3.02 3.458 5.411 3.458h15.074a5.936 5.936 0 0 0 5.41-3.458h25.026c1.643 0 2.972-1.311 2.972-2.932 0-1.622-1.329-2.91-2.972-2.91H70.02c-1.643 0-2.971 1.312-2.971 2.91l-.024.548-15.098-.024v-.524c0-1.622-1.329-2.91-2.971-2.91H21.539c-1.643 0-2.972 1.312-2.972 2.91 0 1.597 1.329 2.932 2.972 2.932z"/>
        <path d="M11.489 82h96.047C113.864 82 119 76.872 119 70.553v-5.638c0-1.653-1.339-2.965-2.994-2.965h-5.647V7.8c0-.097 0-.194-.024-.291C109.92 3.232 106.44 0 102.278 0H16.43C12.12 0 8.616 3.5 8.616 7.801v54.124H2.994C1.339 61.925 0 63.262 0 64.89v5.639C0 76.848 5.16 82 11.489 82zM5.963 67.88h5.623a2.99 2.99 0 0 0 2.994-2.99V7.801c0-1.02.827-1.847 1.85-1.847h85.873c1.046 0 1.947.875 2.117 2.018V64.89c0 1.653 1.363 2.99 2.994 2.99h5.647v2.649c0 3.038-2.483 5.492-5.501 5.492H11.489c-3.043.025-5.526-2.454-5.526-5.468V67.88z"/>
        <path d="M52.804 46.46a2.88 2.88 0 0 0 2.071.88c.762 0 1.5-.317 2.047-.88l17.331-17.685a3.056 3.056 0 0 0 .024-4.226 2.85 2.85 0 0 0-4.118 0l-15.26 15.585-5.19-5.35a2.85 2.85 0 0 0-4.118 0 3.056 3.056 0 0 0-.024 4.226l7.237 7.45z"/>
    </g>
</svg>
