<svg xmlns="http://www.w3.org/2000/svg" width="89" height="97" viewBox="0 0 89 97">
    <g fill="#2B333B" fill-rule="nonzero">
        <path d="M72.937 76.09c-2.629-1.072-5.612-2.284-9.005-3.733l-.154-.065-.12.11a31.316 31.316 0 0 1-3.741 2.89l-.346.228.383.167a536.29 536.29 0 0 0 11.078 4.634c11.588 4.712 13.052 5.633 13.052 8.201 0 1.763-1.866 3.896-4.18 3.896H9.094c-2.314 0-4.18-2.132-4.18-3.896 0-2.568 1.466-3.489 13.052-8.201a530.765 530.765 0 0 0 11.078-4.634l.384-.167-.346-.227a31.604 31.604 0 0 1-3.742-2.891l-.12-.11-.153.065c-3.396 1.447-6.377 2.66-9.006 3.733C4.373 80.846 0 82.626 0 88.523 0 92.96 4.335 97 9.094 97h70.812C84.666 97 89 92.96 89 88.523c0-5.897-4.373-7.677-16.063-12.433z"/>
        <path d="M78.563 28.293h-4.932C73.631 12.668 60.383 0 44.041 0s-29.59 12.668-29.59 28.293H9.519c-2.724 0-4.931 2.111-4.931 4.716v14.147c0 2.604 2.207 4.715 4.931 4.715h4.932c1.456 0 2.73-.63 3.635-1.589.15.203.282.409.46.605 3.414 12.922 13.55 22.32 25.495 22.32 12.234 0 22.55-9.867 25.71-23.274.9 1.148 2.266 1.938 3.88 1.938h4.932c2.724 0 4.932-2.11 4.932-4.715V33.009c0-2.605-2.208-4.716-4.932-4.716zM14.451 47.156H9.519V33.009h4.932v14.147zm29.59 21.364c-7.978 0-14.951-5.38-18.758-13.365 5.844 2.431 13.504 3.79 18.758 3.79 1.363 0 2.466-1.055 2.466-2.358 0-1.303-1.103-2.358-2.466-2.358-8.67 0-17.915-3.314-21.019-5.678a33.38 33.38 0 0 1-.807-7.232c0-14.998 9.793-27.2 21.826-27.2 12.034 0 21.826 12.202 21.826 27.2 0 14.999-9.792 27.201-21.826 27.201zm24.6-39.664C64.564 17.45 55.073 9.431 44.04 9.431c-11.032 0-20.522 8.018-24.6 19.425-.004-.192-.058-.37-.058-.563 0-13 11.062-23.577 24.658-23.577 13.597 0 24.659 10.577 24.659 23.577 0 .192-.055.371-.06.563zm9.922 18.3h-4.932V33.009h4.932v14.147z"/>
    </g>
</svg>
